<?xml version="1.0" standalone="no"?>
<!DOCTYPE svg PUBLIC "-//W3C//DTD SVG 20010904//EN"
 "http://www.w3.org/TR/2001/REC-SVG-20010904/DTD/svg10.dtd">
<svg version="1.0" xmlns="http://www.w3.org/2000/svg"
 width="2084.000000pt" height="2084.000000pt" viewBox="0 0 2084.000000 2084.000000"
 preserveAspectRatio="xMidYMid meet">
<metadata>
Created by potrace 1.11, written by Peter Selinger 2001-2013
</metadata>
<g transform="translate(0.000000,2084.000000) scale(0.100000,-0.100000)"
fill="#000000" stroke="none">
<path d="M10887 20163 c-1 0 -92 -4 -202 -8 -110 -4 -218 -8 -240 -10 -22 -2
-85 -6 -140 -10 -55 -3 -111 -8 -125 -10 -14 -2 -63 -7 -110 -10 -47 -4 -94
-9 -105 -11 -11 -2 -42 -6 -70 -9 -87 -10 -129 -15 -155 -19 -14 -3 -47 -7
-75 -11 -51 -6 -86 -11 -140 -20 -16 -3 -46 -8 -65 -11 -273 -42 -713 -139
-1020 -225 -19 -5 -42 -11 -50 -14 -289 -80 -943 -306 -975 -336 -5 -5 -14 -9
-21 -9 -6 0 -33 -10 -60 -22 -27 -12 -51 -23 -54 -23 -3 0 -27 -11 -54 -23
-27 -12 -50 -22 -52 -22 -8 0 -281 -127 -404 -188 -157 -78 -408 -211 -507
-268 -18 -11 -74 -43 -125 -73 -182 -105 -523 -326 -698 -452 -30 -22 -74 -53
-98 -69 -23 -16 -48 -34 -55 -40 -6 -6 -55 -43 -107 -82 -52 -39 -111 -84
-130 -100 -19 -16 -41 -33 -48 -39 -7 -6 -52 -42 -100 -81 -98 -79 -163 -134
-302 -258 -150 -133 -192 -173 -385 -365 -179 -178 -247 -249 -396 -415 -309
-345 -579 -694 -849 -1100 -304 -455 -547 -897 -790 -1434 -154 -341 -324
-810 -446 -1231 -64 -219 -167 -634 -180 -725 -3 -19 -7 -43 -10 -52 -3 -10
-7 -30 -10 -45 -2 -16 -9 -48 -14 -73 -5 -25 -11 -60 -14 -77 -4 -31 -2 -33
27 -34 169 -3 405 -47 532 -99 11 -4 49 -20 85 -35 56 -23 181 -88 245 -128
188 -117 395 -328 522 -532 89 -142 174 -356 209 -525 155 -749 -208 -1495
-894 -1835 -218 -108 -462 -167 -720 -174 -13 -1 -21 -4 -19 -8 3 -5 8 -30 11
-57 4 -27 9 -52 11 -55 1 -3 6 -22 9 -41 3 -19 10 -60 16 -90 6 -30 14 -66 16
-80 96 -497 343 -1295 541 -1750 8 -19 19 -44 24 -55 4 -11 29 -66 54 -123 25
-56 45 -104 45 -107 0 -7 215 -441 263 -531 98 -181 136 -248 250 -439 95
-159 282 -446 397 -609 91 -130 319 -433 366 -486 12 -14 71 -83 130 -155 59
-71 113 -135 119 -141 5 -6 39 -44 75 -84 401 -453 934 -941 1426 -1306 66
-49 133 -99 150 -111 130 -99 639 -427 814 -525 25 -14 77 -43 115 -65 145
-82 614 -323 629 -323 3 0 42 -18 86 -39 44 -22 83 -40 85 -41 3 0 26 -10 52
-21 236 -102 531 -215 764 -293 85 -29 161 -56 167 -60 7 -4 12 -5 12 -2 0 3
26 -4 58 -15 31 -11 147 -45 257 -75 110 -30 216 -59 235 -64 30 -9 62 -16
190 -45 75 -17 353 -75 380 -80 19 -3 59 -10 89 -16 30 -6 64 -12 75 -14 12
-1 35 -5 51 -8 17 -3 55 -9 85 -13 30 -4 57 -8 60 -9 3 -1 32 -5 65 -9 32 -4
66 -9 75 -11 8 -1 42 -6 75 -9 33 -4 74 -9 90 -11 26 -4 59 -8 180 -20 17 -2
66 -6 110 -10 44 -3 100 -8 125 -10 215 -21 888 -33 1095 -21 28 2 115 7 195
11 79 4 152 8 162 10 10 2 60 7 110 10 51 4 104 8 118 9 14 2 59 7 100 11 41
4 83 9 94 11 10 2 44 6 75 9 31 4 67 8 81 11 14 2 45 6 70 9 25 3 56 8 70 10
14 3 39 7 55 9 101 16 370 64 405 72 14 3 36 8 50 11 58 10 259 55 315 69 33
9 68 18 78 20 152 29 895 258 959 294 10 6 23 10 29 10 6 0 25 6 42 14 18 8
77 31 132 52 699 262 1528 715 2170 1184 264 193 589 454 770 620 27 25 76 70
110 100 82 75 486 479 564 565 36 39 81 88 101 110 37 41 192 222 226 264 10
13 24 28 30 35 11 11 152 189 192 241 175 229 237 316 400 561 361 542 674
1137 924 1759 84 208 246 674 278 800 5 17 29 102 55 190 25 88 51 180 56 205
11 47 12 50 22 90 14 53 49 206 54 230 2 14 13 66 23 115 21 97 20 95 50 267
12 64 22 125 24 135 4 18 15 88 21 133 4 25 22 162 30 233 3 20 7 54 10 75 2
20 7 64 10 97 4 33 8 71 10 85 2 14 7 68 10 120 4 52 9 111 10 130 27 326 27
1097 0 1379 -2 25 -7 80 -10 121 -12 138 -14 164 -31 310 -12 105 -13 114 -29
232 -3 18 -7 51 -10 73 -6 42 -51 312 -60 355 -3 14 -8 41 -11 60 -10 56 -18
93 -53 257 -42 194 -129 523 -204 768 -77 252 -250 726 -337 920 -10 22 -32
74 -50 115 -94 217 -245 520 -395 795 -110 200 -320 542 -463 750 -74 108
-215 305 -239 335 -6 8 -60 78 -120 155 -263 342 -455 558 -818 920 -232 232
-272 270 -420 400 -37 33 -73 65 -79 70 -14 14 -287 239 -346 286 -78 62 -253
194 -305 231 -27 19 -104 73 -170 119 -105 74 -381 256 -432 284 -10 6 -67 40
-128 76 -249 149 -416 240 -680 369 -289 141 -370 178 -657 296 -119 48 -371
141 -528 194 -82 28 -313 101 -330 105 -8 2 -71 20 -140 39 -69 20 -134 38
-145 40 -11 2 -74 18 -140 34 -201 51 -523 120 -641 137 -22 4 -46 8 -54 10
-8 2 -35 7 -60 10 -25 3 -70 10 -100 15 -30 6 -77 12 -105 15 -27 3 -61 8 -75
10 -37 7 -78 13 -145 20 -33 4 -73 8 -90 10 -16 2 -61 7 -100 11 -38 3 -83 8
-100 9 -16 2 -79 7 -140 10 -60 4 -117 9 -126 10 -37 7 -746 24 -752 18z"/>
<path d="M1250 11674 c-264 -47 -485 -161 -671 -346 -62 -62 -151 -175 -183
-233 -9 -16 -20 -37 -25 -45 -159 -276 -190 -668 -79 -985 105 -301 342 -566
628 -703 68 -32 195 -77 244 -86 16 -3 55 -11 85 -17 31 -7 121 -12 201 -12
132 1 177 6 318 38 13 3 59 19 104 35 403 147 703 507 783 940 11 57 15 321 5
370 -4 25 -11 63 -14 85 -21 130 -139 394 -213 475 -13 14 -23 28 -23 32 0 9
-152 163 -195 198 -145 118 -368 222 -525 246 -19 3 -58 9 -87 14 -68 12 -272
9 -353 -6z"/>
</g>
</svg>
