<svg version="1.0" xmlns="http://www.w3.org/2000/svg" width="2778.667" height="2778.667" viewBox="0 0 2084 2084"><path d="M1088.7 67.7c-.1 0-9.2.4-20.2.8s-21.8.8-24 1c-2.2.2-8.5.6-14 1-5.5.3-11.1.8-12.5 1-1.4.2-6.3.7-11 1-4.7.4-9.4.9-10.5 1.1-1.1.2-4.2.6-7 .9-8.7 1-12.9 1.5-15.5 1.9-1.4.3-4.7.7-7.5 1.1-5.1.6-8.6 1.1-14 2-1.6.3-4.6.8-6.5 1.1-27.3 4.2-71.3 13.9-102 22.5-1.9.5-4.2 1.1-5 1.4-28.9 8-94.3 30.6-97.5 33.6-.5.5-1.4.9-2.1.9-.6 0-3.3 1-6 2.2-2.7 1.2-5.1 2.3-5.4 2.3-.3 0-2.7 1.1-5.4 2.3-2.7 1.2-5 2.2-5.2 2.2-.8 0-28.1 12.7-40.4 18.8-15.7 7.8-40.8 21.1-50.7 26.8-1.8 1.1-7.4 4.3-12.5 7.3-18.2 10.5-52.3 32.6-69.8 45.2-3 2.2-7.4 5.3-9.8 6.9-2.3 1.6-4.8 3.4-5.5 4-.6.6-5.5 4.3-10.7 8.2-5.2 3.9-11.1 8.4-13 10-1.9 1.6-4.1 3.3-4.8 3.9-.7.6-5.2 4.2-10 8.1-9.8 7.9-16.3 13.4-30.2 25.8-15 13.3-19.2 17.3-38.5 36.5-17.9 17.8-24.7 24.9-39.6 41.5C351 425.5 324 460.4 297 501c-30.4 45.5-54.7 89.7-79 143.4-15.4 34.1-32.4 81-44.6 123.1-6.4 21.9-16.7 63.4-18 72.5-.3 1.9-.7 4.3-1 5.2-.3 1-.7 3-1 4.5-.2 1.6-.9 4.8-1.4 7.3-.5 2.5-1.1 6-1.4 7.7-.4 3.1-.2 3.3 2.7 3.4 16.9.3 40.5 4.7 53.2 9.9 1.1.4 4.9 2 8.5 3.5 5.6 2.3 18.1 8.8 24.5 12.8 18.8 11.7 39.5 32.8 52.2 53.2 8.9 14.2 17.4 35.6 20.9 52.5 15.5 74.9-20.8 149.5-89.4 183.5-21.8 10.8-46.2 16.7-72 17.4-1.3.1-2.1.4-1.9.8.3.5.8 3 1.1 5.7.4 2.7.9 5.2 1.1 5.5.1.3.6 2.2.9 4.1.3 1.9 1 6 1.6 9 .6 3 1.4 6.6 1.6 8 9.6 49.7 34.3 129.5 54.1 175 .8 1.9 1.9 4.4 2.4 5.5.4 1.1 2.9 6.6 5.4 12.3 2.5 5.6 4.5 10.4 4.5 10.7 0 .7 21.5 44.1 26.3 53.1 9.8 18.1 13.6 24.8 25 43.9 9.5 15.9 28.2 44.6 39.7 60.9 9.1 13 31.9 43.3 36.6 48.6 1.2 1.4 7.1 8.3 13 15.5 5.9 7.1 11.3 13.5 11.9 14.1.5.6 3.9 4.4 7.5 8.4 40.1 45.3 93.4 94.1 142.6 130.6 6.6 4.9 13.3 9.9 15 11.1 13 9.9 63.9 42.7 81.4 52.5 2.5 1.4 7.7 4.3 11.5 6.5 14.5 8.2 61.4 32.3 62.9 32.3.3 0 4.2 1.8 8.6 3.9 4.4 2.2 8.3 4 8.5 4.1.3 0 2.6 1 5.2 2.1 23.6 10.2 53.1 21.5 76.4 29.3 8.5 2.9 16.1 5.6 16.7 6 .7.4 1.2.5 1.2.2s2.6.4 5.8 1.5c3.1 1.1 14.7 4.5 25.7 7.5s21.6 5.9 23.5 6.4c3 .9 6.2 1.6 19 4.5 7.5 1.7 35.3 7.5 38 8 1.9.3 5.9 1 8.9 1.6 3 .6 6.4 1.2 7.5 1.4 1.2.1 3.5.5 5.1.8 1.7.3 5.5.9 8.5 1.3s5.7.8 6 .9c.3.1 3.2.5 6.5.9 3.2.4 6.6.9 7.5 1.1.8.1 4.2.6 7.5.9 3.3.4 7.4.9 9 1.1 2.6.4 5.9.8 18 2 1.7.2 6.6.6 11 1 4.4.3 10 .8 12.5 1 21.5 2.1 88.8 3.3 109.5 2.1 2.8-.2 11.5-.7 19.5-1.1 7.9-.4 15.2-.8 16.2-1 1-.2 6-.7 11-1 5.1-.4 10.4-.8 11.8-.9 1.4-.2 5.9-.7 10-1.1 4.1-.4 8.3-.9 9.4-1.1 1-.2 4.4-.6 7.5-.9 3.1-.4 6.7-.8 8.1-1.1 1.4-.2 4.5-.6 7-.9 2.5-.3 5.6-.8 7-1 1.4-.3 3.9-.7 5.5-.9 10.1-1.6 37-6.4 40.5-7.2 1.4-.3 3.6-.8 5-1.1 5.8-1 25.9-5.5 31.5-6.9 3.3-.9 6.8-1.8 7.8-2 15.2-2.9 89.5-25.8 95.9-29.4 1-.6 2.3-1 2.9-1 .6 0 2.5-.6 4.2-1.4 1.8-.8 7.7-3.1 13.2-5.2 69.9-26.2 152.8-71.5 217-118.4 26.4-19.3 58.9-45.4 77-62 2.7-2.5 7.6-7 11-10 8.2-7.5 48.6-47.9 56.4-56.5 3.6-3.9 8.1-8.8 10.1-11 3.7-4.1 19.2-22.2 22.6-26.4 1-1.3 2.4-2.8 3-3.5 1.1-1.1 15.2-18.9 19.2-24.1 17.5-22.9 23.7-31.6 40-56.1 36.1-54.2 67.4-113.7 92.4-175.9 8.4-20.8 24.6-67.4 27.8-80 .5-1.7 2.9-10.2 5.5-19 2.5-8.8 5.1-18 5.6-20.5 1.1-4.7 1.2-5 2.2-9 1.4-5.3 4.9-20.6 5.4-23 .2-1.4 1.3-6.6 2.3-11.5 2.1-9.7 2-9.5 5-26.7 1.2-6.4 2.2-12.5 2.4-13.5.4-1.8 1.5-8.8 2.1-13.3.4-2.5 2.2-16.2 3-23.3.3-2 .7-5.4 1-7.5.2-2 .7-6.4 1-9.7.4-3.3.8-7.1 1-8.5.2-1.4.7-6.8 1-12 .4-5.2.9-11.1 1-13 2.7-32.6 2.7-109.7 0-137.9-.2-2.5-.7-8-1-12.1-1.2-13.8-1.4-16.4-3.1-31-1.2-10.5-1.3-11.4-2.9-23.2-.3-1.8-.7-5.1-1-7.3-.6-4.2-5.1-31.2-6-35.5-.3-1.4-.8-4.1-1.1-6-1-5.6-1.8-9.3-5.3-25.7-4.2-19.4-12.9-52.3-20.4-76.8-7.7-25.2-25-72.6-33.7-92-1-2.2-3.2-7.4-5-11.5-9.4-21.7-24.5-52-39.5-79.5-11-20-32-54.2-46.3-75-7.4-10.8-21.5-30.5-23.9-33.5-.6-.8-6-7.8-12-15.5-26.3-34.2-45.5-55.8-81.8-92-23.2-23.2-27.2-27-42-40-3.7-3.3-7.3-6.5-7.9-7-1.4-1.4-28.7-23.9-34.6-28.6-7.8-6.2-25.3-19.4-30.5-23.1-2.7-1.9-10.4-7.3-17-11.9-10.5-7.4-38.1-25.6-43.2-28.4-1-.6-6.7-4-12.8-7.6-24.9-14.9-41.6-24-68-36.9-28.9-14.1-37-17.8-65.7-29.6-11.9-4.8-37.1-14.1-52.8-19.4-8.2-2.8-31.3-10.1-33-10.5-.8-.2-7.1-2-14-3.9-6.9-2-13.4-3.8-14.5-4-1.1-.2-7.4-1.8-14-3.4-20.1-5.1-52.3-12-64.1-13.7-2.2-.4-4.6-.8-5.4-1-.8-.2-3.5-.7-6-1-2.5-.3-7-1-10-1.5-3-.6-7.7-1.2-10.5-1.5-2.7-.3-6.1-.8-7.5-1-3.7-.7-7.8-1.3-14.5-2-3.3-.4-7.3-.8-9-1-1.6-.2-6.1-.7-10-1.1-3.8-.3-8.3-.8-10-.9-1.6-.2-7.9-.7-14-1-6-.4-11.7-.9-12.6-1-3.7-.7-74.6-2.4-75.2-1.8z"/><path d="M125 916.6c-26.4 4.7-48.5 16.1-67.1 34.6-6.2 6.2-15.1 17.5-18.3 23.3-.9 1.6-2 3.7-2.5 4.5-15.9 27.6-19 66.8-7.9 98.5 10.5 30.1 34.2 56.6 62.8 70.3 6.8 3.2 19.5 7.7 24.4 8.6 1.6.3 5.5 1.1 8.5 1.7 3.1.7 12.1 1.2 20.1 1.2 13.2-.1 17.7-.6 31.8-3.8 1.3-.3 5.9-1.9 10.4-3.5 40.3-14.7 70.3-50.7 78.3-94 1.1-5.7 1.5-32.1.5-37-.4-2.5-1.1-6.3-1.4-8.5-2.1-13-13.9-39.4-21.3-47.5-1.3-1.4-2.3-2.8-2.3-3.2 0-.9-15.2-16.3-19.5-19.8-14.5-11.8-36.8-22.2-52.5-24.6-1.9-.3-5.8-.9-8.7-1.4-6.8-1.2-27.2-.9-35.3.6z"/></svg>