<svg version="1.0" xmlns="http://www.w3.org/2000/svg" width="682.667" height="682.667" viewBox="0 0 512 512"><path d="M251 17.6c-23.2 2.7-36.4 5.5-54.9 11.6-63.8 21.2-116.7 69.6-143 131-6.9 16.1-11.1 29.5-15.6 50.4-.4 2 .1 2.2 5 2.9 3.1.3 8.6 2.2 12.4 4.1 16.5 8.2 25.9 27 22.2 44.4-3.5 16.7-18.3 30.7-34.4 32.6-3.2.4-5.7.9-5.7 1.2 0 .2 1.2 5.6 2.6 11.9 9.2 41.1 30.1 79.9 59.6 110.9 39.2 40.9 89.9 66 146.7 72.5 13.7 1.5 50.3.6 63.1-1.5 76.5-13.2 140-59.8 174.6-128.1 11.3-22.5 19-46.7 23.1-73 2.5-15.6 2.4-52.6-.1-68.5-6.3-40.5-21.3-76.1-45.8-109-9.1-12.2-33.6-36.7-45.8-45.8-32.7-24.3-68.3-39.4-108.1-45.7-9.9-1.6-47.6-2.9-55.9-1.9zM147.6 210.8l23.9 36.9.3-36.9.2-36.9 11.3.3 11.2.3.3 53.7.2 53.8h-12.7l-12.8-.1-24.5-37.4c-13.4-20.6-24.4-37.5-24.5-37.5 0 0 .1 16.9.3 37.5l.3 37.5H98V174H123.7l23.9 36.8zM281 184v10h-37v24h35v20h-35v24l19.8.2 19.7.3.3 9.7.3 9.8H219v-53.3c0-29.4.3-53.7.7-54 .3-.4 14.3-.7 31-.7H281v10zm95.8.2.3 9.7-15.3.3-15.3.3-.3 43.7-.2 43.8h-24l-.2-43.8-.3-43.7-15.2-.3-15.3-.3V174l42.8.2 42.7.3.3 9.7zM115.4 301.6c.9.3 1.6 1.5 1.6 2.5 0 1.5-.7 1.9-3.2 1.9-5.4 0-6.8 2.3-6.8 10.7v7.3h4c3.3 0 4 .3 4 2s-.7 2-4 2h-3.9l-.3 15.2c-.3 15-.3 15.3-2.5 15.6l-2.3.3V328h-3.5c-2.8 0-3.5-.4-3.5-2s.7-2 3.5-2h3.5v-7.9c0-6.5.4-8.3 2.1-10.5 3.1-3.9 7.5-5.5 11.3-4zm167.1 28.9v28l-2.2.3c-1.9.3-2.3-.1-2.3-2.2 0-3.1-.3-3.2-3.9-.5-5.8 4.2-17.1 3.9-22.2-.7-5.4-4.9-7.5-14.7-4.5-21.7 2-4.9 7.8-9.5 13-10.2 5.6-.9 9.6 0 14.1 3l3.5 2.4v-13.5c0-13.5 0-13.5 2.3-13.2l2.2.3v28zm79.6-21.9c1.7 2.1 0 4.9-3.2 4.9-2.4 0-3.6-2.3-2.5-5.1.7-1.9 4-1.8 5.7.2zM339 319v5h5c4.3 0 5 .3 5 2s-.7 2-5 2h-5v12.4c0 14 .6 15.3 6.5 14.3 3-.5 3.5-.3 3.5 1.3 0 2.5-1.2 3.1-6.2 3.2-3.3 0-4.7-.5-6.5-2.6-2.1-2.5-2.3-3.6-2.3-15.7V328h-3.5c-2.8 0-3.5-.4-3.5-2s.7-2 3.5-2h3.5v-5c0-4.7.2-5 2.5-5s2.5.3 2.5 5zm-193 6.2c12.9 6.6 12.8 25.7-.2 32.4-3.9 2-12.8 2-16.7 0-9.6-5-12.8-17.7-6.8-26.8 2.8-4.2 9.9-7.8 15.2-7.8 2.2 0 6.1 1 8.5 2.2zm83.6-.7c5.3 2.2 6.4 6 6.4 21.5 0 13.1 0 13.1-2.2 12.8-2.2-.3-2.3-.8-2.8-13.3-.3-7.2-.9-13.8-1.4-14.7-.9-2-3.9-3.1-7.8-3-7.7.2-10.7 6.2-10.8 21 0 10.1 0 10.3-2.2 10-2.3-.3-2.3-.5-2.6-17.6L206 324h2.5c2 0 2.5.5 2.5 2.7v2.6l2.3-2c5-4.6 10-5.5 16.3-2.8zm84 .1c5.4 2.6 6.3 5.3 6.5 20.5.1 12.5 0 13.4-1.7 13.4-1.2 0-2-.8-2.2-2.3l-.3-2.3-3 2.6c-3.7 3.1-10.2 3.6-16.1 1.4-3.4-1.4-6.2-7-5.3-10.8 1.3-5.8 6.5-8.7 17.5-9.7 6.9-.7 7-.7 6.3-3.3-.8-3.7-2.1-4.9-5.9-6-3.6-1-9.6 0-12 2-1.2 1-1.8.9-3.2-.4-1.5-1.6-1.5-1.8.3-3.2 4.7-3.6 13.7-4.4 19.1-1.9zm87.2 1.6c4.9 3.3 7.5 8.6 7.5 15.3 0 7.3-3.4 12.9-9.6 16.2-3.9 2-12.8 1.8-17.2-.3-9.6-4.5-12.3-19-5.3-28 5.3-6.7 17-8.2 24.6-3.2zm43.3.6c3.3 3.7 4.1 8.3 3.7 21.7-.3 9.4-.4 10-2.5 10.3-2.1.3-2.2 0-2.5-13.2-.3-12-.5-13.8-2.3-15.5-3.6-3.5-9.3-3.1-13.7.8l-3.3 2.9-.5 12.4c-.5 11.5-.6 12.3-2.5 12.3s-2-.8-2.3-17.3c-.2-16.9-.2-17.2 1.9-17.2 1.2 0 2.3.8 2.6 2 .5 1.9.6 1.9 3.2.1 4-2.8 5.2-3.1 10.5-2.7 4.1.3 5.5.9 7.7 3.4zm-273.9 10.8c.3 12.9.4 13.7 2.7 15.5 4.7 3.8 12.6 1.5 15.5-4.5 1.2-2.5 1.6-6.3 1.6-14V324h5v35.1l-2.2-.3c-1.5-.2-2.4-1.1-2.6-2.6l-.3-2.3-3 2.6c-1.7 1.4-4.3 2.5-5.7 2.6-13.7.5-16.2-3-16.2-22.6V324h4.8l.4 13.6zm191.6 3.6c-.3 17.1-.3 17.3-2.5 17.6l-2.3.3V324h5l-.2 17.2z"/><path d="M260.9 328c-6.9 2-9.9 6-9.9 13.2 0 5.5 1.7 8.7 5.9 11.5 5.7 3.9 12.6 2.7 18-3.1 3.3-3.6 3.9-11 1.2-15.3-3.1-4.9-10.1-7.8-15.2-6.3zM134.2 328.1c-12.5 2.6-13.5 22.3-1.2 26 8.1 2.5 16.2-2.2 17.5-10.1 1.7-10.3-6.2-18.1-16.3-15.9zM305 341.9c-5.2 1.1-7.9 2.9-8.6 5.8-.6 2.1-.1 3.1 2.1 5.1 2.4 2 3.6 2.3 7.3 1.9 2.5-.3 5.3-1.3 6.4-2.4 2-2 4.1-9 3.2-10.5-.6-.9-5.4-.9-10.4.1zM387.1 328.1c-7.9 1.7-12.2 11-8.8 19.2 4.7 11.2 21.5 9.6 24.8-2.5 2.7-10.3-5.5-18.9-16-16.7zM25.6 226.7c-7.2 2.5-15 10.1-17.6 17.1-2.9 7.6-2.5 17.6 1 24.5 7.2 14.3 25 20.3 39.3 13.4 11.5-5.7 17.3-16 16.5-29.1-.6-8.2-2.8-13.3-8.4-18.8-7.8-7.8-20.4-10.7-30.8-7.1z"/></svg>