<?xml version="1.0" encoding="UTF-8"?>
<svg width="2355px" height="1264px" viewBox="0 0 2355 1264" version="1.1" xmlns="http://www.w3.org/2000/svg" xmlns:xlink="http://www.w3.org/1999/xlink">
    <!-- Generator: Sketch 45.2 (43514) - http://www.bohemiancoding.com/sketch -->
    <title>logo-dotvvm</title>
    <desc>Created with Sketch.</desc>
    <defs></defs>
    <g id="Page-1" stroke="none" stroke-width="1" fill="none" fill-rule="evenodd">
        <g id="logo-dotvvm">
            <path d="M482.789,47.908 C491.611,30.413 503.962,15.004 517.01,0.49 C527.646,27.43 537.389,54.717 548.696,81.384 C553.096,92.766 555.183,106.038 549.864,117.494 C543.304,132.803 530.107,144.509 514.773,150.672 C520.539,138.768 527.001,126.068 525.658,112.425 C523.372,96.868 516.562,82.453 509.678,68.461 C512.81,83.82 516.885,99.178 516.662,114.983 C516.19,127.261 511.865,139.116 505.577,149.603 C490.79,132.431 477.644,112.648 473.37,90.033 C471.133,75.42 476.452,60.857 482.789,47.908" id="Fill-1" fill="#3176BB"></path>
            <path d="M623.004,108.995 C664.184,78.328 714.684,63.664 764.339,53.4 C751.763,101.166 738.542,148.783 726.091,196.598 C721.27,223.09 712.496,251.1 691.199,269.042 C662.196,290.813 623.501,298.591 588.185,290.564 C607.272,280.697 626.285,269.663 641.046,253.759 C649.172,245.209 653.646,234.076 657.871,223.266 C666.446,200.152 671.242,175.822 674.795,151.467 C663.09,181.091 650.763,210.939 631.926,236.834 C616.393,255.001 596.909,270.36 574.468,279.033 C569.298,237.456 570.864,193.864 586.62,154.599 C593.182,135.785 607.497,120.924 623.004,108.995" id="Fill-2" fill="#3176BB"></path>
            <path d="M281.188,87.747 C340.584,108.125 399.509,133.549 448.791,173.212 C476.501,196.225 503.092,224.954 510.325,261.413 C525.211,317.082 519.819,376.106 506.746,431.55 C480.08,418.006 458.656,396.211 440.589,372.775 C432.562,362.561 427.294,350.582 421.926,338.877 C407.511,306.048 397.099,271.602 388.699,236.809 C389.668,273.813 392.699,311.043 402.242,346.929 C405.995,360.175 410.17,373.719 418.596,384.854 C436.539,409.357 460.695,428.493 485.944,445.045 C446.703,448.822 406.443,438.98 373.34,417.608 C360.118,408.811 346.996,399.143 338.1,385.699 C319.187,358.088 312.998,324.115 311.085,291.285 C301.319,223.414 291.128,155.592 281.188,87.747" id="Fill-3" fill="#3176BB"></path>
            <path d="M110.106,113.418 C139.184,123.36 167.838,135.513 193.386,152.759 C211.677,165.608 229.421,181.166 238.542,202.041 C250.943,237.182 248.235,275.653 239.884,311.39 C222.91,302.269 208.919,288.229 198.256,272.299 C185.631,249.906 178.698,224.905 171.839,200.302 C173.206,225.899 174.771,252.217 184.538,276.2 C193.858,294.665 211.155,307.339 227.707,318.945 C199.101,321.729 169.502,311.738 148.726,291.931 C132.671,275.306 128.721,251.323 127.005,229.204 C121.612,190.585 115.697,152.013 110.106,113.418" id="Fill-4" fill="#3176BB"></path>
            <path d="M836.359,129.175 C859.049,125.571 882.14,128.802 904.48,133.276 C889.47,152.56 874.134,171.597 859.199,190.907 C851.022,202.513 841.876,214.964 827.736,219.438 C809.743,224.433 790.333,218.741 775.795,207.583 C789.239,206.167 804.176,205.471 815.036,196.326 C826.567,186.285 835.291,173.536 843.492,160.763 C832.954,170.851 822.492,181.19 810.166,189.144 C798.907,196.3 785.413,199.034 772.216,199.109 C778.901,178.655 788.742,158.625 804.35,143.465 C812.825,134.915 824.779,131.188 836.359,129.175" id="Fill-5" fill="#3176BB"></path>
            <path d="M736.23,304.158 C795.452,276.822 858.727,259.4 922.5,246.453 C898.54,336.044 874.159,425.511 850.376,515.127 C842.025,564.286 824.704,615.829 785.388,648.932 C731.235,689.093 659.089,703.955 593.454,688.297 C630.036,670.802 665.376,649.031 693.211,619.183 C705.587,606.36 712.844,589.783 719.728,573.605 C738.491,526.733 748.656,476.905 755.615,427.052 C738.591,473.525 718.561,519.105 693.037,561.601 C684.885,574.623 676.957,588.044 665.973,598.953 C637.99,627.534 605.682,653.33 567.584,666.85 C558.811,590.057 560.7,509.536 590.075,437.018 C597.431,412.961 612.939,392.409 630.409,374.714 C660.605,344.469 697.808,322.276 736.23,304.158" id="Fill-6" fill="#3176BB"></path>
            <path d="M148.254,400.858 C202.307,411.768 255.814,426.057 307.034,446.636 C349.756,464.082 391.308,485.877 426.449,516.122 C449.859,536.699 471.431,561.402 480.825,591.722 C510.1,664.167 512.015,744.588 503.167,821.281 C461.515,806.196 426.299,777.243 396.974,744.662 C361.336,695.754 337.204,639.588 315.658,583.347 C318.64,609.367 323.835,635.114 329.824,660.588 C337.627,691.95 347.046,723.239 362.205,751.918 C370.83,768.892 385.12,781.965 399.336,794.217 C422.994,813.876 449.636,829.632 477.421,842.703 C427.543,854.582 374.011,848.942 327.313,827.966 C317.969,823.915 309.196,818.697 300.275,813.775 C286.507,805.823 275.273,794.49 264.587,782.885 C239.288,748.937 226.264,707.707 219.555,666.352 C196.019,577.805 171.988,489.356 148.254,400.858" id="Fill-7" fill="#3176BB"></path>
            <path d="M0.185,492.463 C30.007,486.673 63.186,481.727 91.417,495.918 C112.89,510.008 124.198,534.761 132.547,558.196 C118.53,558.247 104.166,555.065 92.486,547.038 C81.079,539.06 70.989,529.393 61.024,519.75 C69.598,532.922 78.494,546.292 90.747,556.382 C101.607,564.658 115.822,565.453 128.895,566.671 C116.394,576.313 100.612,581.831 84.757,580.042 C71.959,579.296 61.296,570.722 53.642,561.055 C36.419,537.718 17.955,515.352 0.185,492.463" id="Fill-8" fill="#3176BB"></path>
            <path d="M923.32,535.83 C932.14,526.784 944.71,522.708 956.89,520.769 C979.36,517.638 1002.17,520.321 1024.19,525.118 C1008.96,544.578 993.47,563.838 978.39,583.397 C970.54,594.531 961.69,606.335 948.29,611.032 C930.03,616.326 910.05,610.883 895.33,599.352 C908.46,597.935 922.94,597.314 933.75,588.715 C945.41,578.973 954.21,566.373 962.31,553.624 C951.7,563.515 941.31,573.828 928.96,581.558 C917.8,588.342 904.58,590.877 891.65,590.902 C898.51,570.797 907.98,550.915 923.32,535.83" id="Fill-9" fill="#3176BB"></path>
            <path d="M57.991,691.156 C109.634,673.461 164.632,659.271 219.555,666.352 C226.264,707.707 239.288,748.937 264.587,782.885 C238.417,769.488 214.932,751.596 191.844,733.554 C211.726,758.206 233,782.388 259.318,800.38 C271.321,808.929 286.133,811.266 300.275,813.775 C309.196,818.697 317.969,823.915 327.313,827.966 C301.293,844.443 269.532,852.495 238.84,848.543 C210.036,843.424 187.272,822.697 168.882,801.176 C132.075,764.345 94.848,727.961 57.991,691.156" id="Fill-10" fill="#3176BB"></path>
            <path d="M819.36,710.49 C830.344,703.234 841.826,695.653 855.122,693.815 C875.079,690.584 895.38,694.187 914.54,699.878 C938.3,707.086 960.79,717.871 982.34,730.123 C952.82,750.8 923.02,771.079 893.52,791.832 C877.61,804.605 859.148,817.155 837.875,816.833 C811.01,815.092 785.885,800.033 770.476,778.137 C788.444,782.512 807.631,786.537 825.872,781.444 C848.536,772.87 867.623,757.237 885.84,741.63 C865.064,752.54 843.889,763.524 820.925,768.993 C803.455,771.875 785.164,770.682 768.414,764.792 C782.454,744.24 799.106,725.103 819.36,710.49" id="Fill-11" fill="#3176BB"></path>
            <path d="M559.06,919.92 C589.03,859.851 618.904,799.759 648.9,739.716 C648.154,815.689 651.012,891.712 657.922,967.362 C663.836,1029.22 672.161,1091.07 688.19,1151.19 C699.125,1190.38 712.571,1230.12 737.92,1262.58 C624.197,1262.63 510.473,1262.93 396.726,1263.05 C432.538,1225.77 457.762,1179.2 473.668,1130.27 C495.612,1062.62 497.576,989.579 484.852,919.92 C509.579,919.894 534.307,919.894 559.06,919.92" id="Fill-12" fill="#3C3D3B"></path>
            <path d="M995.79,1039.89 C995.79,1029.95 994.46,1020.86 991.79,1012.62 C989.12,1004.38 985.3,997.34 980.34,991.529 C975.37,985.711 969.25,981.167 961.97,977.894 C954.7,974.618 946.58,972.986 937.61,972.986 L909.25,972.986 L909.25,1107.52 L937.61,1107.52 C946.82,1107.52 955.07,1105.83 962.34,1102.43 C969.61,1099.04 975.73,1094.31 980.7,1088.25 C985.67,1082.2 989.43,1075.04 991.98,1066.8 C994.52,1058.56 995.79,1049.59 995.79,1039.89 Z M838.347,1169.34 L838.347,911.171 L937.61,911.171 C958.94,911.171 977.73,914.567 993.97,921.349 C1010.21,928.139 1023.79,937.351 1034.7,948.987 C1045.61,960.622 1053.85,974.259 1059.43,989.894 C1065,1005.53 1067.79,1022.2 1067.79,1039.89 C1067.79,1059.53 1064.7,1077.29 1058.52,1093.16 C1052.33,1109.04 1043.54,1122.61 1032.15,1133.89 C1020.76,1145.16 1007.06,1153.88 991.06,1160.07 C975.07,1166.25 957.25,1169.34 937.61,1169.34 L838.347,1169.34 L838.347,1169.34 Z" id="Fill-13" fill="#3C3D3B"></path>
            <path d="M1156.51,1040.62 C1156.51,1049.34 1157.72,1057.77 1160.14,1065.89 C1162.56,1074.01 1166.2,1081.22 1171.05,1087.52 C1175.9,1093.83 1182.02,1098.92 1189.42,1102.8 C1196.81,1106.67 1205.59,1108.62 1215.78,1108.62 C1225.96,1108.62 1234.8,1106.62 1242.32,1102.61 C1249.83,1098.61 1255.96,1093.41 1260.68,1086.98 C1265.41,1080.56 1268.92,1073.22 1271.23,1064.98 C1273.53,1056.74 1274.68,1048.38 1274.68,1039.89 C1274.68,1031.16 1273.47,1022.74 1271.05,1014.62 C1268.62,1006.5 1264.92,999.35 1259.96,993.165 C1254.99,986.984 1248.8,982.018 1241.41,978.257 C1234.01,974.501 1225.35,972.619 1215.41,972.619 C1205.23,972.619 1196.44,974.564 1189.05,978.437 C1181.65,982.319 1175.54,987.474 1170.69,993.892 C1165.84,1000.32 1162.26,1007.59 1159.96,1015.71 C1157.65,1023.84 1156.51,1032.13 1156.51,1040.62 Z M1215.05,1171.52 C1195.41,1171.52 1177.6,1167.76 1161.6,1160.25 C1145.6,1152.73 1131.9,1142.86 1120.51,1130.61 C1109.11,1118.37 1100.27,1104.38 1093.97,1088.61 C1087.66,1072.86 1084.51,1056.62 1084.51,1039.89 C1084.51,1022.92 1087.78,1006.56 1094.33,990.8 C1100.87,975.045 1110.02,961.168 1121.78,949.167 C1133.54,937.171 1147.47,927.593 1163.6,920.442 C1179.72,913.294 1197.35,909.716 1216.5,909.716 C1236.14,909.716 1253.96,913.477 1269.95,920.989 C1285.96,928.506 1299.65,938.444 1311.04,950.806 C1322.44,963.168 1331.23,977.23 1337.41,992.986 C1343.59,1008.74 1346.68,1024.86 1346.68,1041.34 C1346.68,1058.32 1343.4,1074.61 1336.86,1090.25 C1330.32,1105.89 1321.23,1119.7 1309.59,1131.7 C1297.95,1143.7 1284.08,1153.34 1267.96,1160.61 C1251.83,1167.88 1234.2,1171.52 1215.05,1171.52 L1215.05,1171.52 Z" id="Fill-14" fill="#3C3D3B"></path>
            <polyline id="Fill-15" fill="#3C3D3B" points="1573.94 972.986 1499.77 972.986 1499.77 1169.34 1428.86 1169.34 1428.86 972.986 1354.32 972.986 1354.32 911.171 1573.94 911.171 1573.94 972.986"></polyline>
            <polyline id="Fill-16" fill="#3176BB" points="1649.57 911.171 1700.11 1080.25 1749.93 911.171 1824.47 911.171 1729.57 1169.34 1670.66 1169.34 1574.67 911.171 1649.57 911.171"></polyline>
            <polyline id="Fill-17" fill="#3176BB" points="1893.92 911.171 1944.46 1080.25 1994.28 911.171 2068.82 911.171 1973.92 1169.34 1915.01 1169.34 1819.02 911.171 1893.92 911.171"></polyline>
            <polyline id="Fill-18" fill="#3176BB" points="2283.72 1169.34 2283.72 1033.35 2240.45 1128.98 2202.63 1128.98 2159.36 1033.35 2159.36 1169.34 2088.45 1169.34 2088.45 911.171 2165.9 911.171 2221.54 1032.62 2277.54 911.171 2354.62 911.171 2354.62 1169.34 2283.72 1169.34"></polyline>
        </g>
    </g>
</svg>