<?xml version="1.0" encoding="utf-8"?>
<!-- Generator: Adobe Illustrator 20.1.0, SVG Export Plug-In . SVG Version: 6.00 Build 0)  -->
<svg version="1.1" id="Layer_1" xmlns="http://www.w3.org/2000/svg" xmlns:xlink="http://www.w3.org/1999/xlink" x="0px" y="0px"
	 viewBox="0 0 443.3 511.9" style="enable-background:new 0 0 443.3 511.9;" xml:space="preserve">
<style type="text/css">
	.st0{fill:none;}
	.st1{fill:#010101;}
	.st2{fill:#082C38;}
	.st3{fill:#3472B9;}
	.st4{fill:#F0505B;}
	.st5{opacity:0.15;fill:#082C38;enable-background:new    ;}
</style>
<path class="st0" d="M443.3,383.9L443.3,383.9L443.3,383.9z"/>
<path class="st1" d="M221.7,256L221.7,256L221.7,256z"/>
<path class="st1" d="M221.7,256L221.7,256L221.7,256z"/>
<path class="st1" d="M221.7,256L221.7,256L221.7,256z"/>
<polyline class="st2" points="0,383.9 221.7,511.9 110.8,320 0,383.9 "/>
<polyline class="st3" points="0,128 110.8,320 221.7,511.9 443.3,383.9 221.7,0 155.2,38.4 0,128 "/>
<path class="st4" d="M279.6,195"/>
<line class="st5" x1="0" y1="128" x2="221.7" y2="0"/>
<line class="st5" x1="389.1" y1="290" x2="0" y2="128"/>
<polyline class="st2" points="0,128 221.7,256 221.7,256 443.3,128 221.7,0 0,128 "/>
<polyline class="st5" points="389.1,290 0,128 0,128 221.7,0 "/>
</svg>
