<?xml version="1.0" encoding="utf-8"?>
<!-- Generator: Adobe Illustrator 21.1.0, SVG Export Plug-In . SVG Version: 6.00 Build 0)  -->
<svg version="1.1" xmlns="http://www.w3.org/2000/svg" xmlns:xlink="http://www.w3.org/1999/xlink" x="0px" y="0px"
	 viewBox="0 0 423 223.2" style="enable-background:new 0 0 423 223.2;" xml:space="preserve">
<style type="text/css">
	.st0{fill:none;stroke:#626769;stroke-width:0.5668;stroke-miterlimit:10;}
	.st1{fill:#0174C3;}
	.st2{display:none;}
	.st3{display:inline;}
	.st4{fill:#231F20;}
</style>
<g id="Artwork">
	<path class="st0" d="M1396.4,1523.1"/>
	<line class="st0" x1="1457.8" y1="1445.7" x2="1457.8" y2="1445.7"/>
	<path class="st0" d="M1654.8,1488.9"/>
	<line class="st0" x1="1631.6" y1="1445.7" x2="1631.6" y2="1445.7"/>
	<g>
		<path class="st1" d="M76.9,113c0-6.7,1.8-12,5.3-16c3.6-4,8.1-6,13.7-6c1.8,0,3.5,0.2,5.1,0.7c1.6,0.4,2.8,1,3.7,1.7
			c0.9,0.7,1.7,1.3,2.4,2c0.7,0.7,1.2,1.2,1.5,1.7l0.3,0.7h0.2c-0.1-0.8-0.2-1.8-0.2-2.8V75.3h8.1v58.8h-7.7v-4l0.1-2.8h-0.2
			c-0.1,0.2-0.3,0.5-0.5,0.8c-0.2,0.3-0.7,1-1.4,1.9c-0.7,0.9-1.6,1.7-2.6,2.4c-1,0.7-2.3,1.3-4,1.9c-1.7,0.6-3.5,0.8-5.4,0.8
			c-5.7,0-10.2-2-13.5-6.1C78.6,124.9,76.9,119.6,76.9,113z M85.2,113c0,4.6,1.1,8.2,3.3,11c2.2,2.7,5.1,4.1,8.6,4.1
			c3.4,0,6.3-1.3,8.7-3.8c2.3-2.5,3.5-6.3,3.5-11.4c0-4.1-1-7.6-3.1-10.5c-2.1-3-5-4.5-8.8-4.5c-3.4,0-6.3,1.3-8.7,4
			C86.3,104.7,85.2,108.3,85.2,113z"/>
		<path class="st1" d="M123.9,83.5v-8.2h8.2v8.2H123.9z M124,134.1V91.9h8.1v42.2H124z"/>
		<path class="st1" d="M144.4,141.7c3.5,1.9,7.4,2.8,11.6,2.8c4,0,7.2-1,9.7-2.9c2.4-1.9,3.7-4.9,3.7-9v-3.1l0.1-2.7h-0.2
			c-2.6,4.4-6.8,6.6-12.5,6.6c-5.7,0-10.3-2-13.7-6.1c-3.4-4.1-5.1-9.2-5.1-15.5c0-6.2,1.6-11.3,4.9-15.2c3.3-3.9,7.8-5.9,13.5-5.9
			c1.9,0,3.6,0.2,5.2,0.6c1.6,0.4,2.9,0.9,3.8,1.6c0.9,0.6,1.7,1.3,2.4,1.9c0.7,0.6,1.1,1.1,1.3,1.6l0.4,0.6h0.2
			c-0.1-0.4-0.1-0.8-0.1-1.3v-3.9h7.7v40.4c0,3.3-0.6,6.3-1.8,8.8c-1.2,2.6-2.8,4.6-4.9,6c-2.1,1.5-4.3,2.6-6.7,3.3
			c-2.4,0.7-5.1,1.1-7.8,1.1c-5.1,0-9.9-1.2-14.4-3.5L144.4,141.7z M158.3,126.6c3.3,0,6-1.1,8-3.4c2.1-2.3,3.1-6,3.1-11.1
			c0-9.4-4-14.2-11.9-14.2c-3.6,0-6.4,1.2-8.5,3.7c-2,2.5-3,5.9-3,10.2c0,4.4,1.1,8,3.3,10.7C151.5,125.2,154.5,126.6,158.3,126.6z"
			/>
		<path class="st1" d="M184,83.5v-8.2h8.2v8.2H184z M184.1,134.1V91.9h8.1v42.2H184.1z"/>
		<path class="st1" d="M198.1,113c0-6.3,2.1-11.5,6.4-15.7c4.2-4.2,9.6-6.3,16.2-6.3c3.1,0,6,0.5,8.6,1.5c2.6,1,4.5,2.1,5.6,3.1
			l1.6,1.5l-3.8,5.7c-0.3-0.3-0.8-0.8-1.5-1.3c-0.6-0.6-2-1.3-4-2.2c-2-0.9-4.1-1.3-6.2-1.3c-4.2,0-7.7,1.4-10.5,4.2
			c-2.8,2.8-4.2,6.4-4.2,10.7s1.4,7.9,4.2,10.8c2.8,2.9,6.4,4.3,10.7,4.3c2.3,0,4.6-0.5,6.7-1.4c2.2-0.9,3.7-1.9,4.7-2.8l1.5-1.4
			l3.2,5.9c-0.2,0.2-0.4,0.4-0.7,0.7c-0.3,0.3-1,0.8-2,1.6c-1.1,0.8-2.2,1.5-3.4,2c-1.2,0.6-2.8,1.1-4.7,1.6c-1.9,0.5-3.9,0.7-6,0.7
			c-6.6,0-12-2.1-16.2-6.2C200.2,124.7,198.1,119.4,198.1,113z"/>
		<path class="st1" d="M238.5,113c0-6.6,2-11.9,6-16c4-4.1,9-6.1,15.1-6.1c5.7,0,10.2,1.9,13.4,5.6c3.2,3.7,4.8,8.4,4.8,14.2
			l-0.2,3.5h-30.7c0.2,4.4,1.7,7.9,4.5,10.3c2.7,2.4,6.1,3.6,10,3.6c2.2,0,4.3-0.4,6.4-1.2c2.1-0.8,3.6-1.6,4.6-2.4l1.5-1.2l3.3,5.9
			c-0.4,0.4-1.1,1-2,1.7c-0.9,0.7-2.7,1.6-5.6,2.7c-2.8,1.1-5.7,1.7-8.7,1.7c-6.6,0-11.9-2.1-16.1-6.3
			C240.6,124.6,238.5,119.3,238.5,113z M247.1,108.1h22.5c-0.1-3.5-1.1-6.2-3-8c-1.9-1.8-4.3-2.7-7.1-2.7c-3.2,0-5.9,0.9-8.1,2.8
			C249,102.1,247.6,104.7,247.1,108.1z"/>
		<path class="st1" d="M283.7,134.1V91.9h7.8v7.3l-0.2,3.2h0.2c1-3.2,2.7-5.9,5-7.9c2.4-2.1,5.1-3.1,8.3-3.1l2.1,0.2v8
			c-0.7-0.2-1.5-0.2-2.3-0.2c-2.6,0-5,0.9-7.2,2.7c-2.2,1.8-3.7,4.2-4.7,7.2c-0.7,2.2-1,4.7-1,7.6v17.2H283.7z"/>
		<path class="st1" d="M317.2,118.7V99h-5.5v-6.5h5.7V80.3h7.8v12.2h10.2V99h-10.2v18.7c0,1.6,0.2,3,0.7,4.2c0.4,1.2,1,2.1,1.6,2.8
			c0.6,0.7,1.4,1.2,2.2,1.6c0.9,0.4,1.6,0.6,2.3,0.7c0.7,0.1,1.4,0.2,2.1,0.2l1.9-0.2v7.2c-0.8,0.1-1.7,0.2-2.8,0.2
			c-1.3,0-2.6-0.1-3.8-0.2c-1.2-0.2-2.6-0.6-4.2-1.2c-1.6-0.7-2.9-1.5-4-2.6c-1.1-1.1-2.1-2.6-2.9-4.6
			C317.6,123.7,317.2,121.3,317.2,118.7z"/>
		<path class="st1" d="M340.7,75.2c-3.4,0-6.1,2.7-6.1,6.1c0,3.4,2.7,6.1,6.1,6.1c3.4,0,6.1-2.7,6.1-6.1
			C346.8,77.9,344.1,75.2,340.7,75.2 M340.7,86.2c-2.7,0-4.9-2.2-4.9-4.9c0-2.7,2.2-4.9,4.9-4.9c2.7,0,4.9,2.2,4.9,4.9
			C345.6,84,343.4,86.2,340.7,86.2"/>
		<g>
			<path class="st1" d="M338.6,84.6v-6.7h2.1c0.6,0,1,0.1,1.3,0.2c0.3,0.1,0.6,0.4,0.8,0.7c0.2,0.3,0.3,0.7,0.3,1.1
				c0,0.4-0.1,0.8-0.3,1.1c-0.2,0.3-0.5,0.6-0.9,0.7v0c0.1,0.1,0.1,0.2,0.2,0.3l1.4,2.6h-1.1l-1.4-2.7h-1.4v2.7H338.6z M339.5,81.1
				h1.4c0.4,0,0.7-0.1,0.9-0.3c0.2-0.2,0.3-0.5,0.3-0.9c0-0.5-0.2-0.8-0.5-1c-0.2-0.1-0.5-0.2-0.9-0.2h-1.1V81.1z"/>
		</g>
	</g>
</g>
<g id="Artwork_Instructions" class="st2">
	<text transform="matrix(1 0 0 1 466.8336 66.4144)" class="st3"><tspan x="0" y="0" class="st4" style="font-family:'ArialMT'; font-size:14px;">An important element of the DigiCert Logo is the negative</tspan><tspan x="0" y="16.8" class="st4" style="font-family:'ArialMT'; font-size:14px;">space around it. To determine the appropriate amount of</tspan><tspan x="0" y="33.6" class="st4" style="font-family:'ArialMT'; font-size:14px;">space use the height and width of the DigiCert Logomark</tspan><tspan x="0" y="50.4" class="st4" style="font-family:'ArialMT'; font-size:14px;">on all sides of the logo. The DigiCert logo can be as large as</tspan><tspan x="0" y="67.2" class="st4" style="font-family:'ArialMT'; font-size:14px;">needed in a design as long as it has the appropriate amount of</tspan><tspan x="0" y="84" class="st4" style="font-family:'ArialMT'; font-size:14px;">negative space. The DigiCert logo should never be displayed</tspan><tspan x="0" y="100.8" class="st4" style="font-family:'ArialMT'; font-size:14px;">smaller than 3/4".</tspan></text>
</g>
<g id="Guides" class="st2">
</g>
</svg>
