<?xml version="1.0" encoding="UTF-8" standalone="no"?>
<svg
   xmlns:dc="http://purl.org/dc/elements/1.1/"
   xmlns:cc="http://creativecommons.org/ns#"
   xmlns:rdf="http://www.w3.org/1999/02/22-rdf-syntax-ns#"
   xmlns:svg="http://www.w3.org/2000/svg"
   xmlns="http://www.w3.org/2000/svg"
   xmlns:sodipodi="http://sodipodi.sourceforge.net/DTD/sodipodi-0.dtd"
   xmlns:inkscape="http://www.inkscape.org/namespaces/inkscape"
   inkscape:version="1.0 (4035a4fb49, 2020-05-01)"
   sodipodi:docname="ic_fluent_people_audience_24_regular.svg"
   id="svg18"
   version="1.1"
   fill="none"
   viewBox="0 0 100 100"
   height="100"
   width="100">
  <metadata
     id="metadata24">
    <rdf:RDF>
      <cc:Work
         rdf:about="">
        <dc:format>image/svg+xml</dc:format>
        <dc:type
           rdf:resource="http://purl.org/dc/dcmitype/StillImage" />
      </cc:Work>
    </rdf:RDF>
  </metadata>
  <defs
     id="defs22" />
  <sodipodi:namedview
     inkscape:current-layer="svg18"
     inkscape:window-maximized="1"
     inkscape:window-y="-8"
     inkscape:window-x="1912"
     inkscape:cy="45.294118"
     inkscape:cx="50"
     inkscape:zoom="8.5"
     showgrid="false"
     id="namedview20"
     inkscape:window-height="1017"
     inkscape:window-width="1920"
     inkscape:pageshadow="2"
     inkscape:pageopacity="0"
     guidetolerance="10"
     gridtolerance="10"
     objecttolerance="10"
     borderopacity="1"
     bordercolor="#666666"
     pagecolor="#ffffff" />
  <path
     style="stroke-width:4.59993"
     id="path2"
     fill="#68217A"
     d="m 49.8,41.701352 c -2.54058,0 -4.6,2.059363 -4.6,4.599872 0,2.540508 2.05942,4.599871 4.6,4.599871 2.54058,0 4.6,-2.059363 4.6,-4.599871 0,-2.540509 -2.05942,-4.599872 -4.6,-4.599872 z m -11.5,4.599872 c 0,-6.351043 5.14878,-11.499678 11.5,-11.499678 6.35122,0 11.5,5.148635 11.5,11.499678 0,6.351042 -5.14878,11.499678 -11.5,11.499678 -6.35122,0 -11.5,-5.148636 -11.5,-11.499678 z" />
  <path
     style="stroke-width:4.59993"
     id="path4"
     fill="#68217a"
     d="m 19.9,42.092341 c -2.540488,0 -4.6,2.059363 -4.6,4.599872 0,2.540048 2.059512,4.599871 4.6,4.599871 2.540488,0 4.6,-2.059823 4.6,-4.599871 0,-2.540509 -2.059512,-4.599872 -4.6,-4.599872 z M 8.4,46.692213 c 0,-6.351503 5.148734,-11.499862 11.5,-11.499862 6.351266,0 11.5,5.148359 11.5,11.499862 0,6.351042 -5.148734,11.499678 -11.5,11.499678 -6.351266,0 -11.5,-5.148636 -11.5,-11.499678 z" />
  <path
     style="stroke-width:4.59993"
     id="path6"
     fill="#68217a"
     d="m 34.85,16.399807 c -2.540488,0 -4.6,2.059454 -4.6,4.599871 0,2.540463 2.059512,4.599871 4.6,4.599871 2.540488,0 4.6,-2.059408 4.6,-4.599871 0,-2.540417 -2.059512,-4.599871 -4.6,-4.599871 z m -11.5,4.599871 C 23.35,14.64859 28.498734,9.5 34.85,9.5 c 6.35122,0 11.5,5.14859 11.5,11.499678 0,6.351088 -5.14878,11.499678 -11.5,11.499678 -6.351266,0 -11.5,-5.14859 -11.5,-11.499678 z" />
  <path
     style="stroke-width:4.59993"
     id="path8"
     fill="#68217a"
     d="m 64.75,16.399807 c -2.54058,0 -4.6,2.059454 -4.6,4.599871 0,2.540463 2.05942,4.599871 4.6,4.599871 2.54058,0 4.6,-2.059408 4.6,-4.599871 0,-2.540417 -2.05942,-4.599871 -4.6,-4.599871 z m -11.5,4.599871 C 53.25,14.64859 58.39878,9.5 64.75,9.5 c 6.35122,0 11.5,5.14859 11.5,11.499678 0,6.351088 -5.14878,11.499678 -11.5,11.499678 -6.35122,0 -11.5,-5.14859 -11.5,-11.499678 z" />
  <path
     style="stroke-width:4.59993"
     id="path10"
     fill="#68217a"
     d="m 79.7,42.092341 c -2.54058,0 -4.6,2.059363 -4.6,4.599872 0,2.540048 2.05942,4.599871 4.6,4.599871 2.54058,0 4.6,-2.059823 4.6,-4.599871 0,-2.540509 -2.05942,-4.599872 -4.6,-4.599872 z m -11.5,4.599872 c 0,-6.351503 5.14878,-11.499862 11.5,-11.499862 6.35122,0 11.5,5.148359 11.5,11.499862 0,6.351042 -5.14878,11.499678 -11.5,11.499678 -6.35122,0 -11.5,-5.148636 -11.5,-11.499678 z" />
  <path
     style="stroke-width:4.59993"
     id="path12"
     fill="#68217a"
     d="M 27.574686,64.700708 C 27.077932,65.746259 26.8,66.916006 26.8,68.150612 l 4.6e-5,3.449903 H 8.4 v 1.119609 l 4.14e-4,0.01058 c 0.00138,0.03128 0.00501,0.09798 0.01403,0.195494 0.018124,0.195495 0.057362,0.505986 0.140806,0.891455 0.169004,0.781518 0.504206,1.80269 1.1546,2.804542 1.165272,1.795329 3.748862,4.178063 10.167196,4.178063 3.499818,0 5.864402,-0.703321 7.4819,-1.633875 0.422372,1.692753 1.19002,3.836753 2.604382,6.016172 0.06725,0.103497 0.135562,0.206534 0.204976,0.309111 -2.619424,1.354202 -5.99357,2.208398 -10.291258,2.208398 -8.508712,0 -13.388668,-3.367105 -15.9551,-7.321615 C 2.706396,78.505382 2.108672,76.651634 1.811236,75.276732 1.66146,74.584452 1.584042,73.996128 1.543884,73.56328 1.523736,73.345706 1.512788,73.165851 1.506854,73.028775 1.50391,72.960237 1.502208,72.902279 1.501196,72.85582 L 1.50023,72.794182 1.500046,72.770262 1.5,72.759683 v -0.0046 -4.604471 c 0,-1.905267 1.544634,-3.449904 3.45,-3.449904 z" />
  <path
     style="stroke-width:4.59993"
     id="path14"
     fill="#68217a"
     d="m 69.42222,85.496726 c 2.61142,1.350982 5.97356,2.203338 10.25478,2.203338 8.52702,0 13.41866,-3.363425 15.99282,-7.317475 1.21946,-1.873067 1.8193,-3.727735 2.11784,-5.103557 0.15042,-0.6932 0.2277,-1.281524 0.26818,-1.714832 0.02024,-0.217574 0.03128,-0.397889 0.03726,-0.534965 0.0028,-0.06854 0.0046,-0.126496 0.0055,-0.173415 l 9.4e-4,-0.06118 4.6e-4,-0.02438 v -0.01058 -0.0046 -4.604471 c 0,-0.914915 -0.3634,-1.79257 -1.01062,-2.439312 C 96.44262,65.064098 95.56494,64.700708 94.65,64.700708 H 72.02306 C 72.52998,65.768798 72.8,66.945906 72.8,68.150612 v 3.449903 h 18.4 v 1.119609 l -4.6e-4,0.01012 c -0.0014,0.03128 -0.0051,0.09798 -0.0138,0.195034 -0.0184,0.195035 -0.0575,0.505066 -0.14122,0.890535 -0.16928,0.780138 -0.50554,1.80039 -1.15736,2.802242 -1.16932,1.795789 -3.76418,4.182203 -10.21016,4.182203 -3.47714,0 -5.82866,-0.699181 -7.43912,-1.625595 -0.42412,1.694133 -1.19462,3.838593 -2.61326,6.017552 -0.06624,0.102117 -0.13386,0.203774 -0.2024,0.304511 z" />
  <path
     style="stroke-width:4.59993"
     id="path16"
     fill="#68217a"
     d="m 31.4,68.150612 c 0,-1.905267 1.544634,-3.449904 3.45,-3.449904 h 29.9 c 0.91494,0 1.79262,0.36339 2.43938,1.010592 C 67.8366,66.358042 68.2,67.235697 68.2,68.150612 v 6.899807 c 0,-1.149968 -0.006,0.0989 0,0 v 0.0092 0.01058 l -4.6e-4,0.02438 -9.2e-4,0.06118 c -9.2e-4,0.04692 -0.0028,0.104877 -0.0055,0.173415 -0.006,0.137076 -0.01702,0.317391 -0.03726,0.534965 -0.04048,0.433308 -0.11776,1.021631 -0.26818,1.714832 -0.29854,1.375821 -0.89838,3.230489 -2.11784,5.103557 -2.57418,3.954049 -7.46582,7.317475 -15.99284,7.317475 -8.50862,0 -13.388622,-3.367106 -15.955054,-7.321615 -1.21555,-1.873068 -1.813274,-3.726816 -2.11071,-5.101717 -0.149776,-0.692281 -0.227194,-1.280604 -0.267352,-1.713452 -0.02015,-0.217574 -0.0311,-0.397429 -0.03703,-0.534505 -0.0029,-0.06854 -0.0046,-0.126497 -0.0057,-0.172955 l -9.24e-4,-0.06164 -1.84e-4,-0.02392 -4.6e-5,-0.01058 v -0.0046 z m 6.9,3.449903 v 3.419544 l 4.14e-4,0.01058 c 0.0014,0.03128 0.005,0.09798 0.01398,0.195495 0.01817,0.195494 0.05741,0.505986 0.140852,0.891455 0.169004,0.781518 0.504206,1.802689 1.1546,2.804541 1.16541,1.79533 3.74877,4.178063 10.16715,4.178063 6.44598,0 9.04084,-2.386413 10.21016,-4.182203 0.65182,-1.001852 0.98808,-2.022103 1.15736,-2.802241 0.08372,-0.385469 0.12282,-0.695501 0.14122,-0.890535 0.0087,-0.09706 0.01242,-0.163756 0.0138,-0.195035 L 61.3,75.020059 v -3.419544 z" />
</svg>
