<svg xmlns="http://www.w3.org/2000/svg" viewBox="0 0 100 100" height="100" width="100"><path d="M78.052 54.704a7.05 7.05 0 017.049 7.05v2.35l10.446-6.964c1.561-1.041 3.653.078 3.653 1.956v33.517c0 1.877-2.092 2.997-3.653 1.955l-10.446-6.964v2.35a7.05 7.05 0 01-7.05 7.05H54.554a7.05 7.05 0 01-7.05-7.05v-28.2a7.05 7.05 0 017.05-7.05zM47.504 3c25.96 0 47.004 21.046 47.004 47.007 0 .823-.021 1.641-.063 2.453a7.213 7.213 0 00-1.505.77l-4.512 3.008a11.814 11.814 0 00-1.209-1.833 40.44 40.44 0 00.24-4.398c0-3.24-.386-6.39-1.114-9.407l-15.782.004c.294 3.042.447 6.187.447 9.4h-7.05c0-3.244-.172-6.391-.491-9.4h-31.93a89.152 89.152 0 00-.491 9.403c0 4.98.405 9.728 1.126 14.1h10.63v7.049h-9.112c2.164 8.011 5.456 14.086 9.112 16.965v1.833c0 2.623.86 5.045 2.312 7C20.266 95.711.5 75.167.5 50.007.5 24.046 21.544 3 47.504 3zm-21.11 68.158H13.6a40.098 40.098 0 0019.24 16.03c-2.454-3.854-4.48-8.677-5.969-14.174zm-1.95-30.554H8.666l-.022.08a40.065 40.065 0 00-1.094 9.323c0 4.964.906 9.716 2.56 14.101l14.913-.001c-.67-4.461-1.024-9.2-1.024-14.1 0-3.215.153-6.36.447-9.403zm8.402-27.778l-.108.041a40.096 40.096 0 00-21.656 20.689l14.325.002c1.473-8.238 4.043-15.41 7.439-20.732zm14.658-2.776l-.544.025c-5.947.544-11.692 9.953-14.36 23.48h29.808c-2.66-13.489-8.381-22.883-14.31-23.475zm14.663 2.776l.502.819c3.145 5.228 5.533 12.09 6.932 19.913l14.325-.002a40.107 40.107 0 00-20.39-20.16z" fill-rule="nonzero" fill="#FFF"/></svg>