<?xml version="1.0" encoding="UTF-8" standalone="no"?>
<svg
   xmlns:dc="http://purl.org/dc/elements/1.1/"
   xmlns:cc="http://creativecommons.org/ns#"
   xmlns:rdf="http://www.w3.org/1999/02/22-rdf-syntax-ns#"
   xmlns:svg="http://www.w3.org/2000/svg"
   xmlns="http://www.w3.org/2000/svg"
   xmlns:sodipodi="http://sodipodi.sourceforge.net/DTD/sodipodi-0.dtd"
   xmlns:inkscape="http://www.inkscape.org/namespaces/inkscape"
   inkscape:version="1.0 (4035a4fb49, 2020-05-01)"
   sodipodi:docname="ic_fluent_globe_video_24_regular.svg"
   id="svg9"
   version="1.1"
   viewBox="0 0 100 100"
   height="100px"
   width="100px">
  <metadata
     id="metadata15">
    <rdf:RDF>
      <cc:Work
         rdf:about="">
        <dc:format>image/svg+xml</dc:format>
        <dc:type
           rdf:resource="http://purl.org/dc/dcmitype/StillImage" />
      </cc:Work>
    </rdf:RDF>
  </metadata>
  <defs
     id="defs13" />
  <sodipodi:namedview
     inkscape:current-layer="svg9"
     inkscape:window-maximized="1"
     inkscape:window-y="-8"
     inkscape:window-x="1912"
     inkscape:cy="50"
     inkscape:cx="50"
     inkscape:zoom="8.5"
     showgrid="false"
     id="namedview11"
     inkscape:window-height="1017"
     inkscape:window-width="1920"
     inkscape:pageshadow="2"
     inkscape:pageopacity="0"
     guidetolerance="10"
     gridtolerance="10"
     objecttolerance="10"
     borderopacity="1"
     bordercolor="#666666"
     pagecolor="#ffffff" />
  <!-- Generator: Sketch 64 (93537) - https://sketch.com -->
  <title
     id="title2">ic_fluent_globe_video_24_regular</title>
  <desc
     id="desc4">Created with Sketch.</desc>
  <g
     transform="matrix(4.6996576,0,0,4.6999556,-8.8921247,-6.3950232)"
     fill-rule="evenodd"
     fill="none"
     stroke-width="1"
     stroke="none"
     id="ðŸ”-System-Icons">
    <g
       fill-rule="nonzero"
       fill="#68217a"
       id="ic_fluent_globe_video_24_regular">
      <path
         id="ðŸŽ¨-Color"
         d="m 18.5,13 c 0.8284,0 1.5,0.6716 1.5,1.5 V 15 l 2.2227,-1.4818 C 22.5549,13.2967 23,13.5349 23,13.9343 v 7.1314 c 0,0.3994 -0.4451,0.6376 -0.7773,0.4161 L 20,20 v 0.5 c 0,0.8284 -0.6716,1.5 -1.5,1.5 h -5 C 12.6716,22 12,21.3284 12,20.5 v -6 C 12,13.6716 12.6716,13 13.5,13 Z M 12,1.99896 c 5.5237,0 10.0016,4.47785 10.0016,10.00154 0,0.1751 -0.0045,0.3492 -0.0134,0.522 -0.1092,0.0403 -0.2165,0.0945 -0.3203,0.1637 l -0.96,0.64 c -0.0737,-0.1382 -0.1599,-0.2687 -0.2572,-0.39 0.0336,-0.3072 0.0509,-0.6194 0.0509,-0.9357 0,-0.6894 -0.0821,-1.3596 -0.237,-2.00147 l -3.358,8.5e-4 c 0.0625,0.64722 0.095,1.31632 0.095,2.00012 h -1.5 c 0,-0.6904 -0.0366,-1.36 -0.1046,-2.00007 H 8.6031 C 8.53508,10.6402 8.49847,11.3099 8.49847,12.0005 c 0,1.0595 0.08615,2.0698 0.23974,3.0001 H 11 v 1.4997 H 9.06112 C 9.52155,18.2049 10.222,19.4975 11,20.11 v 0.39 c 0,0.558 0.1828,1.0734 0.4919,1.4894 C 6.20429,21.7248 1.99847,17.3538 1.99847,12.0005 1.99847,6.47681 6.47632,1.99896 12,1.99896 Z M 7.50833,16.5008 4.78585,16.5007 c 0.95834,1.533 2.39178,2.7386 4.09417,3.4106 C 8.35774,19.0915 7.92675,18.0652 7.60975,16.8958 Z M 7.09345,9.99986 H 3.73584 L 3.73108,10.0171 c -0.15208,0.6363 -0.23261,1.3005 -0.23261,1.9834 0,1.0562 0.19259,2.0673 0.54457,3.0003 l 3.17316,-3e-4 c -0.1423,-0.9491 -0.21773,-1.9574 -0.21773,-3 0,-0.684 0.03247,-1.3532 0.09498,-2.00064 z M 8.88107,4.08967 8.85817,4.09838 C 6.81085,4.91309 5.15484,6.5004 4.25017,8.50027 l 3.04812,3.6e-4 C 7.61165,6.74784 8.15849,5.22192 8.88107,4.08967 Z M 12,3.49896 11.8844,3.50426 C 10.6189,3.62002 9.39645,5.62198 8.82874,8.50021 H 15.1713 C 14.6052,5.63005 13.388,3.63125 12.1263,3.50528 Z m 3.12,0.59076 0.1069,0.1741 c 0.6692,1.11247 1.1773,2.57235 1.4749,4.23681 l 3.0481,-3.6e-4 C 18.8852,6.58886 17.3342,5.05432 15.4112,4.211 Z" />
    </g>
  </g>
</svg>
