<svg xmlns="http://www.w3.org/2000/svg" viewBox="0 0 100 100" height="100" width="100"><path d="M72.855 47.71c13.886 0 25.143 11.257 25.143 25.143 0 13.886-11.257 25.142-25.143 25.142-13.886 0-25.143-11.256-25.143-25.142S58.969 47.71 72.855 47.71zm0 9.14l-.411.036a2.288 2.288 0 00-1.838 1.838l-.037.411-.002 11.429-11.438.003-.41.037a2.288 2.288 0 00-1.838 1.838l-.037.411.037.411c.169.933.905 1.669 1.838 1.838l.41.037 11.443-.003.002 11.448.037.41c.17.933.905 1.67 1.838 1.838l.41.037.412-.037a2.288 2.288 0 001.838-1.838l.037-.41-.002-11.448 11.446.003.411-.037a2.288 2.288 0 001.838-1.838l.037-.41-.037-.412a2.288 2.288 0 00-1.838-1.838l-.41-.037-11.452-.003.002-11.429-.037-.41a2.288 2.288 0 00-1.838-1.839zm-25.043.002a29.581 29.581 0 00-3.24 6.86l-9.432-.002c-.63 0-1.142.511-1.142 1.143v4.571c0 4.467 2.797 7.062 9.458 7.812a29.753 29.753 0 001.951 7.02C33.733 83.63 27.14 78.673 27.14 69.424v-4.571a8 8 0 018-8zm-17.81-22.856a18.462 18.462 0 00-.435 6.854l-19.57.003c-.63 0-1.142.511-1.142 1.142v4.572c0 5.377 4.053 8.041 14.02 8.041 2.11 0 3.944-.117 5.52-.354a12.539 12.539 0 00-5.363 7.207l-.158.004c-13.298 0-20.876-4.982-20.876-14.898v-4.572a8 8 0 017.343-7.973l.657-.027zm17.71-9.143c7.574 0 13.714 6.14 13.714 13.714 0 7.574-6.14 13.714-13.714 13.714-7.574 0-13.714-6.14-13.714-13.714 0-7.574 6.14-13.714 13.714-13.714zm37.714 9.142a8 8 0 018 8l-.005 4.399c.09 1.686-.047 3.231-.4 4.636a29.774 29.774 0 00-6.447-4.542l-.005-4.493c0-.63-.512-1.142-1.143-1.142l-19.57-.004a18.467 18.467 0 00-.435-6.853zM47.712 31.71a6.857 6.857 0 100 13.714 6.857 6.857 0 000-13.714zM22.569 1.995c7.574 0 13.714 6.14 13.714 13.715 0 7.574-6.14 13.714-13.714 13.714-7.574 0-13.714-6.14-13.714-13.714 0-7.574 6.14-13.715 13.714-13.715zm50.286 0c7.574 0 13.714 6.14 13.714 13.715 0 7.574-6.14 13.714-13.714 13.714-7.574 0-13.715-6.14-13.715-13.714 0-7.574 6.14-13.715 13.715-13.715zM22.569 8.853a6.857 6.857 0 100 13.714 6.857 6.857 0 000-13.714zm50.286 0a6.857 6.857 0 100 13.714 6.857 6.857 0 000-13.714z" fill-rule="nonzero" fill="#68217a"/></svg>