<svg xmlns="http://www.w3.org/2000/svg" fill="none" viewBox="0 0 100 100" height="100" width="100"><path fill="#212121" d="M44.938 2.226l.024.035A48.555 48.555 0 0150 2c26.51 0 48 21.49 48 48S76.51 98 50 98c-15.404 0-29.114-7.257-37.897-18.538l-.012-.002.002-.01A47.794 47.794 0 012 50C2 25.223 20.774 4.83 44.872 2.27zM50 9.2c-.255 0-.51.002-.765.007a42.61 42.61 0 011.794 4.082c1.665 4.424 3.196 10.949.48 16.733C49 35.363 44.67 36.745 41.476 37.57l-.406.105c-3.15.812-4.362 1.125-5.246 2.466-.81 1.231-.688 2.795.295 5.998l.222.712c.39 1.24.858 2.735 1.103 4.141.304 1.75.39 3.973-.73 6.123-1.111 2.132-2.584 3.585-4.324 4.533-1.635.891-3.328 1.228-4.594 1.453l-.447.079c-2.471.435-3.653.643-4.805 1.877-.893.957-1.47 2.648-1.807 5.175-.137 1.028-.22 2.047-.305 3.101l-.046.562c-.096 1.163-.215 2.502-.476 3.651l-.001.007C27.368 85.695 38.088 90.8 50 90.8c7.57 0 14.658-2.062 20.734-5.653a21.453 21.453 0 01-1.49-1.682c-1.63-2.052-3.767-5.586-3.026-9.758.356-2.006 1.432-3.685 2.47-4.973 1.06-1.312 2.338-2.525 3.455-3.554.265-.244.52-.476.764-.699.855-.78 1.582-1.445 2.204-2.096.83-.87 1.01-1.261 1.02-1.281.325-1.079-.074-1.843-.51-2.18a1.46 1.46 0 00-.911-.295c-.402-.003-1.055.118-1.925.67-1.007.637-2.471 1.03-4.012.41-1.283-.517-1.995-1.506-2.336-2.07-.69-1.142-1.079-2.622-1.331-3.707a79.141 79.141 0 01-.55-2.655l-.196-.989c-.243-1.199-.448-2.055-.644-2.588-.003-.006-.027-.065-.093-.184-.07-.13-.17-.295-.307-.503a29.92 29.92 0 00-1.093-1.519c-.163-.217-.34-.448-.524-.69-.773-1.013-1.694-2.221-2.478-3.415-.94-1.432-2.002-3.304-2.338-5.3-.178-1.058-.175-2.28.264-3.52.45-1.272 1.27-2.317 2.335-3.116 2.32-1.74 5.73-5.628 8.752-9.403a181.257 181.257 0 003.533-4.565A40.607 40.607 0 0050 9.2zm27.492 10.652a189.513 189.513 0 01-3.638 4.698c-2.888 3.607-6.716 8.087-9.837 10.5.121.474.481 1.257 1.224 2.388.629.96 1.348 1.903 2.107 2.9l.622.818c.828 1.097 1.974 2.627 2.5 4.05.414 1.122.711 2.49.947 3.655.083.412.16.805.233 1.183.123.626.238 1.212.36 1.773 2.888-.824 5.768-.326 8.016 1.411 2.92 2.26 4.14 6.175 2.997 9.959-.525 1.736-1.748 3.167-2.704 4.17-.81.849-1.783 1.736-2.665 2.54l-.635.581c-1.104 1.016-2.033 1.917-2.726 2.777-.713.884-.937 1.436-.986 1.712-.186 1.049.324 2.445 1.575 4.02a15.062 15.062 0 001.798 1.882C85.328 73.388 90.8 62.333 90.8 50c0-11.942-5.13-22.686-13.308-30.148zM9.2 50c0 6.712 1.62 13.045 4.493 18.63.407-2.675 1.257-5.99 3.588-8.487 2.88-3.084 6.411-3.663 8.631-4.026.222-.036.433-.07.626-.105 1.19-.211 1.877-.397 2.407-.686.425-.232.902-.613 1.384-1.539.072-.137.203-.516.022-1.56-.156-.895-.448-1.83-.83-3.055-.09-.288-.186-.596-.285-.92-.889-2.896-2.31-7.691.576-12.071 2.503-3.802 6.53-4.773 9.087-5.39.277-.067.537-.13.776-.192 2.702-.698 4.24-1.345 5.317-3.638 1.418-3.019.808-7.127-.702-11.136a36.55 36.55 0 00-2.778-5.74C23.052 13.99 9.2 30.376 9.2 50z"/></svg>