<?xml version="1.0" encoding="UTF-8" standalone="no"?>
<svg
   xmlns:dc="http://purl.org/dc/elements/1.1/"
   xmlns:cc="http://creativecommons.org/ns#"
   xmlns:rdf="http://www.w3.org/1999/02/22-rdf-syntax-ns#"
   xmlns:svg="http://www.w3.org/2000/svg"
   xmlns="http://www.w3.org/2000/svg"
   xmlns:sodipodi="http://sodipodi.sourceforge.net/DTD/sodipodi-0.dtd"
   xmlns:inkscape="http://www.inkscape.org/namespaces/inkscape"
   inkscape:version="1.0 (4035a4fb49, 2020-05-01)"
   sodipodi:docname="ic_fluent_people_community_add_24_regular.svg"
   id="svg9"
   version="1.1"
   viewBox="0 0 100 100"
   height="100px"
   width="100px">
  <metadata
     id="metadata15">
    <rdf:RDF>
      <cc:Work
         rdf:about="">
        <dc:format>image/svg+xml</dc:format>
        <dc:type
           rdf:resource="http://purl.org/dc/dcmitype/StillImage" />
      </cc:Work>
    </rdf:RDF>
  </metadata>
  <defs
     id="defs13" />
  <sodipodi:namedview
     inkscape:current-layer="svg9"
     inkscape:window-maximized="1"
     inkscape:window-y="-8"
     inkscape:window-x="1912"
     inkscape:cy="50"
     inkscape:cx="50"
     inkscape:zoom="8.5"
     showgrid="false"
     id="namedview11"
     inkscape:window-height="1017"
     inkscape:window-width="1920"
     inkscape:pageshadow="2"
     inkscape:pageopacity="0"
     guidetolerance="10"
     gridtolerance="10"
     objecttolerance="10"
     borderopacity="1"
     bordercolor="#666666"
     pagecolor="#ffffff" />
  <!-- Generator: Sketch 59.1 (86144) - https://sketch.com -->
  <title
     id="title2">ic_fluent_people_community_add_24_regular</title>
  <desc
     id="desc4">Created with Sketch.</desc>
  <g
     transform="matrix(4.5714286,0,0,4.5714287,-7.1342781,-7.1267199)"
     fill-rule="evenodd"
     fill="none"
     stroke-width="1"
     stroke="none"
     id="ðŸ”-Product-Icons">
    <g
       fill-rule="nonzero"
       fill="#68217a"
       id="ic_fluent_people_community_add_24_regular">
      <path
         id="ðŸŽ¨Color"
         d="m 17.497598,11.995482 c 3.037566,0 5.5,2.462433 5.5,5.499999 0,3.037567 -2.462434,5.5 -5.5,5.5 -3.037566,0 -5.5,-2.462433 -5.5,-5.5 0,-3.037566 2.462434,-5.499999 5.5,-5.499999 z m 0,1.999234 -0.08988,0.0081 c -0.204093,0.03704 -0.365025,0.197976 -0.402069,0.402069 l -0.0081,0.08988 -3.5e-4,2.5 -2.502,7.65e-4 -0.08988,0.0081 c -0.204093,0.03704 -0.365025,0.197976 -0.402069,0.402069 l -0.0081,0.08988 0.0081,0.08988 c 0.03704,0.204093 0.197976,0.365025 0.402069,0.402069 l 0.08988,0.0081 2.503,-7.65e-4 4.57e-4,2.50425 0.0081,0.08988 c 0.03704,0.204093 0.197976,0.365025 0.402069,0.402069 l 0.08988,0.0081 0.08988,-0.0081 c 0.204093,-0.03704 0.365025,-0.197976 0.402069,-0.402069 l 0.0081,-0.08988 -4.57e-4,-2.50425 2.503915,7.65e-4 0.08988,-0.0081 c 0.204093,-0.03704 0.365025,-0.197976 0.402069,-0.402069 l 0.0081,-0.08988 -0.0081,-0.08988 c -0.03704,-0.204093 -0.197976,-0.365025 -0.402069,-0.402069 l -0.08988,-0.0081 -2.504915,-7.65e-4 3.5e-4,-2.5 -0.0081,-0.08988 c -0.03704,-0.204093 -0.197976,-0.365025 -0.402068,-0.402069 z m -5.47805,5.59e-4 c -0.296729,0.463437 -0.536261,0.967016 -0.708635,1.500778 l -2.0633151,-5.71e-4 c -0.1380712,0 -0.25,0.111928 -0.25,0.25 v 0.999999 c 0,0.977127 0.6119568,1.544768 2.0691171,1.708909 0.08035,0.535916 0.225037,1.050634 0.426782,1.535655 C 8.9396537,19.852814 7.4975978,18.768589 7.4975978,16.745481 v -0.999999 c 0,-0.966499 0.7835017,-1.75 1.7500001,-1.75 z M 8.1235934,8.9955667 c -0.08225,0.3195942 -0.1259956,0.6546459 -0.1259956,0.9999148 0,0.1691055 0.010494,0.3357605 0.03087,0.4993435 l -4.2808702,6.57e-4 c -0.1380712,0 -0.25,0.111928 -0.25,0.25 v 1 c 0,1.17617 0.8866658,1.759037 3.0667904,1.759037 0.461902,0 0.8629704,-0.02558 1.2075545,-0.07739 -0.5651727,0.358051 -0.988887,0.917302 -1.1731249,1.576516 l -0.03443,8.7e-4 c -2.9089293,0 -4.5667905,-1.089826 -4.5667905,-3.259037 v -1 c 0,-0.9181738 0.7071103,-1.6711928 1.6064728,-1.7441992 l 0.1435273,-0.0058 z M 11.997598,6.9954815 c 1.656854,0 3,1.3431458 3,3 0,1.6568545 -1.343146,3.0000005 -3,3.0000005 -1.656854,0 -3.0000001,-1.343146 -3.0000001,-3.0000005 0,-1.6568542 1.3431461,-3 3.0000001,-3 z m 8.25,2 c 0.966498,0 1.75,0.7835017 1.75,1.7500005 l -0.0011,0.962071 c 0.01965,0.368844 -0.01021,0.706992 -0.08744,1.014318 -0.422751,-0.390902 -0.896432,-0.725609 -1.410422,-0.993619 l -0.0011,-0.98277 c 0,-0.138072 -0.111929,-0.25 -0.25,-0.25 l -4.280849,-7.88e-4 c 0.02036,-0.163544 0.03085,-0.330154 0.03085,-0.4992125 0,-0.3452689 -0.04374,-0.6803206 -0.125996,-0.9999148 z m -8.25,-0.5 c -0.828427,0 -1.5,0.6715729 -1.5,1.5 0,0.8284275 0.671573,1.5000005 1.5,1.5000005 0.828427,0 1.5,-0.671573 1.5,-1.5000005 0,-0.8284271 -0.671573,-1.5 -1.5,-1.5 z m -5.5000002,-6.5 c 1.6568543,0 3.0000001,1.3431458 3.0000001,3 0,1.6568543 -1.3431458,3 -3.0000001,3 -1.6568542,0 -2.9999999,-1.3431457 -2.9999999,-3 0,-1.6568542 1.3431457,-3 2.9999999,-3 z m 11.0000002,0 c 1.656854,0 3,1.3431458 3,3 0,1.6568543 -1.343146,3 -3,3 -1.656854,0 -3,-1.3431457 -3,-3 0,-1.6568542 1.343146,-3 3,-3 z M 6.4975978,3.4954816 c -0.8284271,0 -1.5,0.6715728 -1.5,1.4999999 0,0.8284272 0.6715729,1.5 1.5,1.5 0.8284272,0 1.5,-0.6715728 1.5,-1.5 0,-0.8284271 -0.6715728,-1.4999999 -1.5,-1.4999999 z m 11.0000002,0 c -0.828427,0 -1.5,0.6715728 -1.5,1.4999999 0,0.8284272 0.671573,1.5 1.5,1.5 0.828427,0 1.5,-0.6715728 1.5,-1.5 0,-0.8284271 -0.671573,-1.4999999 -1.5,-1.4999999 z" />
    </g>
  </g>
</svg>
