<svg xmlns="http://www.w3.org/2000/svg" viewBox="0 0 100 100" height="100" width="100"><path d="M19.972 4h60.056c9.05 0 16.446 7.97 16.945 18.01L97 23.094v55.812c0 10.182-7.084 18.502-16.01 19.064l-.962.03H19.972c-9.05 0-16.446-7.97-16.945-18.01L3 78.906V23.094C3 12.912 10.084 4.592 19.01 4.03l.962-.03h60.056zm60.056 8.813H19.972c-4.795 0-8.727 4.154-9.108 9.438l-.03.843v55.812c0 5.395 3.692 9.819 8.389 10.247l.75.034h60.055c4.795 0 8.727-4.154 9.108-9.438l.03-.843V23.094c0-5.395-3.692-9.819-8.389-10.247zM39.83 36.814c.573-1.29 1.876-1.898 3.065-1.507l.438.194 22.884 12.872c.505.284.915.745 1.168 1.313.573 1.29.224 2.828-.767 3.663l-.401.278L43.334 66.5c-.362.204-.762.31-1.167.31-1.282 0-2.348-1.039-2.57-2.409l-.041-.528V38.128c0-.456.094-.906.275-1.314z" fill-rule="nonzero" fill="#68217A"/></svg>