<?xml version="1.0" encoding="UTF-8" standalone="no"?>
<svg
   xmlns:dc="http://purl.org/dc/elements/1.1/"
   xmlns:cc="http://creativecommons.org/ns#"
   xmlns:rdf="http://www.w3.org/1999/02/22-rdf-syntax-ns#"
   xmlns:svg="http://www.w3.org/2000/svg"
   xmlns="http://www.w3.org/2000/svg"
   xmlns:sodipodi="http://sodipodi.sourceforge.net/DTD/sodipodi-0.dtd"
   xmlns:inkscape="http://www.inkscape.org/namespaces/inkscape"
   inkscape:version="1.0 (4035a4fb49, 2020-05-01)"
   sodipodi:docname="ic_fluent_people_community_24_regular.svg"
   id="svg9"
   version="1.1"
   viewBox="0 0 100 100"
   height="100px"
   width="100px">
  <metadata
     id="metadata15">
    <rdf:RDF>
      <cc:Work
         rdf:about="">
        <dc:format>image/svg+xml</dc:format>
        <dc:type
           rdf:resource="http://purl.org/dc/dcmitype/StillImage" />
      </cc:Work>
    </rdf:RDF>
  </metadata>
  <defs
     id="defs13" />
  <sodipodi:namedview
     inkscape:current-layer="svg9"
     inkscape:window-maximized="1"
     inkscape:window-y="-8"
     inkscape:window-x="1912"
     inkscape:cy="59.411765"
     inkscape:cx="50"
     inkscape:zoom="8.5"
     showgrid="false"
     id="namedview11"
     inkscape:window-height="1017"
     inkscape:window-width="1920"
     inkscape:pageshadow="2"
     inkscape:pageopacity="0"
     guidetolerance="10"
     gridtolerance="10"
     objecttolerance="10"
     borderopacity="1"
     bordercolor="#666666"
     pagecolor="#ffffff" />
  <!-- Generator: Sketch 59.1 (86144) - https://sketch.com -->
  <title
     id="title2">ic_fluent_people_community_24_regular</title>
  <desc
     id="desc4">Created with Sketch.</desc>
  <g
     transform="matrix(4.9499703,0,0,4.9500148,-9.3999406,-9.8500444)"
     fill-rule="evenodd"
     fill="none"
     stroke-width="1"
     stroke="none"
     id="ðŸ”-Product-Icons">
    <g
       fill-rule="nonzero"
       fill="#68217a"
       id="ic_fluent_people_community_24_regular">
      <path
         id="ðŸŽ¨-Color"
         d="m 14.75,15 c 0.966498,0 1.75,0.783502 1.75,1.75 l -0.0011,0.962072 c 0.116638,2.189084 -1.510989,3.296965 -4.432147,3.296965 C 9.1578611,21.009037 7.5,19.919212 7.5,17.75 v -1 C 7.5,15.783502 8.2835017,15 9.25,15 Z m 0,1.5 H 9.25 C 9.1119288,16.5 9,16.611929 9,16.75 v 1 c 0,1.176171 0.8866659,1.759037 3.066791,1.759037 2.167895,0 2.995741,-0.563492 2.933209,-1.75706 V 16.75 C 15,16.611929 14.888071,16.5 14.75,16.5 Z m -11,-6.5 4.3759956,8.5e-5 C 8.0437452,10.319679 8,10.654731 8,11 c 0,0.169106 0.010494,0.335761 0.03087,0.499344 L 3.75,11.5 c -0.1380712,0 -0.25,0.111929 -0.25,0.25 v 1 c 0,1.176171 0.8866659,1.759037 3.0667905,1.759037 0.461902,0 0.8629703,-0.02558 1.2075544,-0.07739 -0.5651727,0.358051 -0.988887,0.917303 -1.1731249,1.576516 l -0.034429,8.7e-4 C 3.6578611,16.009037 2,14.919212 2,12.75 v -1 C 2,10.783502 2.7835017,10 3.75,10 Z m 16.5,0 c 0.966498,0 1.75,0.783502 1.75,1.75 l -0.0011,0.962072 c 0.116638,2.189084 -1.510989,3.296965 -4.432148,3.296965 l -0.168258,-0.0018 c -0.18947,-0.67705 -0.631572,-1.248579 -1.218245,-1.606527 0.386668,0.07259 0.846978,0.108285 1.386503,0.108285 2.167896,0 2.995742,-0.563492 2.93321,-1.75706 V 11.75 c 0,-0.138071 -0.111929,-0.25 -0.25,-0.25 l -4.280849,-7.87e-4 C 15.989512,11.335668 16,11.169059 16,11 16,10.654731 15.956255,10.319679 15.874004,10.000085 Z M 12,8 c 1.656854,0 3,1.3431458 3,3 0,1.656854 -1.343146,3 -3,3 -1.656854,0 -3,-1.343146 -3,-3 0,-1.6568542 1.343146,-3 3,-3 z m 0,1.5 c -0.828427,0 -1.5,0.671573 -1.5,1.5 0,0.828427 0.671573,1.5 1.5,1.5 0.828427,0 1.5,-0.671573 1.5,-1.5 0,-0.828427 -0.671573,-1.5 -1.5,-1.5 z M 6.5,3 c 1.6568543,0 3,1.3431457 3,3 0,1.6568543 -1.3431457,3 -3,3 -1.6568543,0 -3,-1.3431457 -3,-3 0,-1.6568543 1.3431457,-3 3,-3 z m 11,0 c 1.656854,0 3,1.3431457 3,3 0,1.6568543 -1.343146,3 -3,3 -1.656854,0 -3,-1.3431457 -3,-3 0,-1.6568543 1.343146,-3 3,-3 z M 6.5,4.5 C 5.6715729,4.5 5,5.1715729 5,6 5,6.8284271 5.6715729,7.5 6.5,7.5 7.3284271,7.5 8,6.8284271 8,6 8,5.1715729 7.3284271,4.5 6.5,4.5 Z m 11,0 C 16.671573,4.5 16,5.1715729 16,6 16,6.8284271 16.671573,7.5 17.5,7.5 18.328427,7.5 19,6.8284271 19,6 19,5.1715729 18.328427,4.5 17.5,4.5 Z" />
    </g>
  </g>
</svg>
