<svg xmlns="http://www.w3.org/2000/svg" viewBox="0 0 100 100" height="100" width="100"><path d="M63.612 64.4a8.662 8.662 0 018.663 8.663l-.006 4.762c.577 10.836-7.48 16.32-21.939 16.32-14.399 0-22.605-5.395-22.605-16.132v-4.95a8.662 8.662 0 018.662-8.663zm0 7.425H36.387c-.683 0-1.237.554-1.237 1.238v4.95c0 5.822 4.389 8.707 15.18 8.707 10.731 0 14.83-2.79 14.52-8.697v-4.96c0-.684-.554-1.238-1.238-1.238zM9.162 39.65h21.661a19.991 19.991 0 00-.47 7.421l-21.19.004c-.684 0-1.238.554-1.238 1.238v4.95c0 5.822 4.389 8.707 15.18 8.707 2.287 0 4.272-.127 5.978-.383a13.577 13.577 0 00-5.807 7.804l-.17.004C8.705 69.395.5 64 .5 53.263v-4.95a8.662 8.662 0 018.662-8.663zm81.675 0a8.662 8.662 0 018.662 8.663l-.005 4.762c.577 10.836-7.48 16.32-21.939 16.32l-.833-.009a13.642 13.642 0 00-6.03-7.952c1.914.359 4.192.536 6.863.536 10.731 0 14.829-2.79 14.52-8.698v-4.96c0-.683-.555-1.237-1.238-1.237l-21.19-.004a19.959 19.959 0 00-.471-7.42zM50 29.75c8.201 0 14.85 6.649 14.85 14.85 0 8.202-6.649 14.85-14.85 14.85-8.202 0-14.85-6.648-14.85-14.85 0-8.201 6.648-14.85 14.85-14.85zm0 7.425a7.425 7.425 0 100 14.85 7.425 7.425 0 000-14.85zM22.775 5c8.201 0 14.85 6.649 14.85 14.85S30.976 34.7 22.775 34.7c-8.202 0-14.85-6.649-14.85-14.85S14.573 5 22.775 5zm54.45 0c8.2 0 14.85 6.649 14.85 14.85s-6.65 14.85-14.85 14.85c-8.202 0-14.85-6.649-14.85-14.85S69.023 5 77.225 5zm-54.45 7.425a7.425 7.425 0 100 14.85 7.425 7.425 0 000-14.85zm54.45 0a7.425 7.425 0 100 14.85 7.425 7.425 0 000-14.85z" fill-rule="nonzero" fill="#68217a"/></svg>