<?xml version="1.0" encoding="UTF-8" standalone="no"?>
<svg
   xmlns:dc="http://purl.org/dc/elements/1.1/"
   xmlns:cc="http://creativecommons.org/ns#"
   xmlns:rdf="http://www.w3.org/1999/02/22-rdf-syntax-ns#"
   xmlns:svg="http://www.w3.org/2000/svg"
   xmlns="http://www.w3.org/2000/svg"
   xmlns:sodipodi="http://sodipodi.sourceforge.net/DTD/sodipodi-0.dtd"
   xmlns:inkscape="http://www.inkscape.org/namespaces/inkscape"
   inkscape:version="1.0 (4035a4fb49, 2020-05-01)"
   sodipodi:docname="ic_fluent_earth_24_regular.svg"
   id="svg4"
   version="1.1"
   fill="none"
   viewBox="0 0 100 100"
   height="100"
   width="100">
  <metadata
     id="metadata10">
    <rdf:RDF>
      <cc:Work
         rdf:about="">
        <dc:format>image/svg+xml</dc:format>
        <dc:type
           rdf:resource="http://purl.org/dc/dcmitype/StillImage" />
      </cc:Work>
    </rdf:RDF>
  </metadata>
  <defs
     id="defs8" />
  <sodipodi:namedview
     inkscape:current-layer="svg4"
     inkscape:window-maximized="1"
     inkscape:window-y="-8"
     inkscape:window-x="1912"
     inkscape:cy="12"
     inkscape:cx="12"
     inkscape:zoom="35.416667"
     showgrid="false"
     id="namedview6"
     inkscape:window-height="1017"
     inkscape:window-width="1920"
     inkscape:pageshadow="2"
     inkscape:pageopacity="0"
     guidetolerance="10"
     gridtolerance="10"
     objecttolerance="10"
     borderopacity="1"
     bordercolor="#666666"
     pagecolor="#ffffff" />
  <path
     style="stroke-width:4.8"
     id="path2"
     fill="#212121"
     d="m 44.938467,2.226176 0.02352,0.035088 C 46.617989,2.08856 48.29847,2 50.000072,2 76.510019,2 98.00012,23.49032 98.00012,50 c 0,26.50944 -21.490101,48 -48.000048,48 C 34.595609,98 20.885931,90.74336 12.102978,79.46192 l -0.01229,-0.0024 0.0023,-0.01008 C 5.7673558,71.31872 2.00012,61.09904 2.00012,50 2.00012,25.222592 20.773755,4.829936 44.872227,2.270672 Z M 50.000072,9.2 c -0.25536,0 -0.510241,0.00235 -0.764641,0.00701 0.588481,1.17216 1.220161,2.557632 1.793762,4.081584 1.665122,4.424304 3.195843,10.949328 0.479521,16.733184 -2.508483,5.341488 -6.838567,6.723456 -10.032491,7.548672 l -0.40608,0.104832 c -3.150675,0.812112 -4.3621,1.1244 -5.245781,2.466 -0.811105,1.2312 -0.688225,2.79504 0.294624,5.99808 0.06912,0.22512 0.143856,0.4632 0.221808,0.71136 0.389281,1.24032 0.858577,2.73552 1.103185,4.14144 0.304321,1.74912 0.390289,3.97296 -0.72984,6.1224 -1.111153,2.13216 -2.583987,3.5856 -4.324229,4.5336 -1.634593,0.89088 -3.327651,1.22832 -4.594324,1.45296 l -0.446257,0.07872 c -2.471378,0.43488 -3.653571,0.6432 -4.804948,1.8768 -0.893761,0.95712 -1.470626,2.64816 -1.80749,5.17488 -0.137136,1.02816 -0.2196,2.04768 -0.304849,3.10176 l -0.04579,0.56208 c -0.0959,1.16304 -0.2148,2.50176 -0.476304,3.65088 l -0.0014,0.0067 C 27.367569,85.69472 38.08766,90.8 50.000072,90.8 c 7.569608,0 14.657775,-2.0616 20.734101,-5.65344 -0.472321,-0.48096 -0.984481,-1.04544 -1.489922,-1.68192 -1.629601,-2.05152 -3.767044,-5.58576 -3.025923,-9.75744 0.356161,-2.00592 1.431362,-3.68544 2.470563,-4.97328 1.058881,-1.31232 2.336642,-2.5248 3.454083,-3.55344 0.26544,-0.24432 0.519841,-0.47664 0.763681,-0.69936 0.855361,-0.78096 1.582561,-1.4448 2.204642,-2.09616 0.828961,-0.86928 1.009441,-1.26096 1.019041,-1.28112 0.32592,-1.07856 -0.07344,-1.84272 -0.50928,-2.17968 -0.218881,-0.16896 -0.512161,-0.29184 -0.911041,-0.29472 -0.402241,-0.0034 -1.054561,0.11712 -1.925282,0.66912 -1.006561,0.63744 -2.471043,1.03104 -4.011844,0.41088 -1.283042,-0.51696 -1.994402,-1.50624 -2.335683,-2.07072 -0.69072,-1.14192 -1.079041,-2.62176 -1.331521,-3.70704 -0.19488,-0.83712 -0.38112,-1.78752 -0.55056,-2.6544 -0.06816,-0.34704 -0.133441,-0.68112 -0.195361,-0.9888 -0.24288,-1.19904 -0.44736,-2.05584 -0.64368,-2.58816 -0.0029,-0.0067 -0.02736,-0.06528 -0.09264,-0.18432 -0.07056,-0.1296 -0.170401,-0.2952 -0.307201,-0.50304 -0.2784,-0.42384 -0.64224,-0.9216 -1.092961,-1.51872 -0.16368,-0.21696 -0.33984,-0.44784 -0.52416,-0.68976 -0.773281,-1.01376 -1.694402,-2.22144 -2.478243,-3.41568 -0.939841,-1.432272 -2.002082,-3.303936 -2.338082,-5.299968 -0.1776,-1.057824 -0.1752,-2.27952 0.264,-3.52056 0.449281,-1.270848 1.270081,-2.316 2.335682,-3.115152 2.320323,-1.740336 5.728806,-5.628336 8.751849,-9.403392 1.380482,-1.723824 2.614083,-3.33888 3.532324,-4.564704 C 65.467607,11.504048 58.00312,9.2 50.000072,9.2 Z m 27.491547,10.652208 c -0.94848,1.26456 -2.215682,2.922864 -3.637443,4.698048 -2.888163,3.60672 -6.716647,8.087232 -9.83761,10.499616 0.12192,0.474624 0.48144,1.257024 1.224001,2.388432 0.629281,0.95904 1.348322,1.903104 2.107202,2.899056 0.204481,0.26808 0.413281,0.54216 0.622561,0.81912 0.827521,1.09632 1.973762,2.62608 2.499842,4.05024 0.413761,1.1208 0.710881,2.48928 0.946561,3.65472 0.08304,0.41136 0.159841,0.80448 0.233761,1.18272 0.1224,0.62592 0.23712,1.21152 0.35952,1.77312 2.888163,-0.82416 5.768166,-0.3264 8.015528,1.4112 2.921283,2.25888 4.140964,6.17424 2.997123,9.95808 -0.524641,1.73616 -1.747202,3.16752 -2.703363,4.16976 -0.8112,0.8496 -1.783201,1.73664 -2.664962,2.54064 -0.218401,0.1992 -0.432481,0.39456 -0.635521,0.58128 -1.104001,1.01616 -2.032322,1.91664 -2.725923,2.77632 -0.71328,0.88416 -0.936481,1.43664 -0.985441,1.71216 -0.18672,1.0488 0.324001,2.4456 1.574402,4.01952 0.56688,0.71376 1.170721,1.3152 1.639202,1.74096 0.0552,0.04992 0.10848,0.09744 0.15888,0.1416 C 85.328107,73.38752 90.800113,62.33264 90.800113,50 c 0,-11.9424 -5.130725,-22.686432 -13.308494,-30.147792 z M 9.2001272,50 c 0,6.71232 1.6208178,13.04544 4.4924208,18.63072 0.407472,-2.67552 1.257745,-5.9904 3.588579,-8.48736 2.879139,-3.08448 6.410935,-3.66288 8.631033,-4.02624 0.222144,-0.03648 0.432432,-0.07104 0.626305,-0.10512 1.188865,-0.2112 1.876417,-0.39744 2.406914,-0.6864 0.4248,-0.23136 0.901489,-0.61296 1.383745,-1.5384 0.07138,-0.1368 0.203137,-0.516 0.02141,-1.56096 -0.155616,-0.89424 -0.447408,-1.82976 -0.8292,-3.05376 -0.09005,-0.28896 -0.186097,-0.59664 -0.285553,-0.92112 -0.888721,-2.89584 -2.309186,-7.69056 0.575761,-12.070608 2.503874,-3.80136 6.531174,-4.773168 9.087705,-5.390064 0.2772,-0.06691 0.537072,-0.1296 0.775873,-0.191328 2.702064,-0.698112 4.239986,-1.345248 5.316627,-3.638112 1.417921,-3.019152 0.807841,-7.127712 -0.701281,-11.136336 -0.7152,-1.900704 -1.554721,-3.570912 -2.219522,-4.769568 -0.2088,-0.37632 -0.39792,-0.702624 -0.55872,-0.971232 C 23.052845,13.990064 9.2001272,30.377264 9.2001272,50 Z" />
</svg>
