<svg xmlns="http://www.w3.org/2000/svg" viewBox="0 0 100 100" height="100" width="100"><path d="M80.028 3C89.4 3 97 10.599 97 19.972v60.056C97 89.4 89.401 97 80.028 97H19.972C10.6 97 3 89.401 3 80.028V19.972C3 10.6 10.599 3 19.972 3zm9.139 28.722H10.833v48.306a9.139 9.139 0 009.14 9.139h60.055a9.139 9.139 0 009.139-9.14zM27.806 63.056a6.528 6.528 0 110 13.055 6.528 6.528 0 010-13.055zm22.194 0a6.528 6.528 0 110 13.055 6.528 6.528 0 010-13.055zm-22.194-20.89a6.528 6.528 0 110 13.056 6.528 6.528 0 010-13.055zm22.194 0a6.528 6.528 0 110 13.056 6.528 6.528 0 010-13.055zm22.194 0a6.528 6.528 0 110 13.056 6.528 6.528 0 010-13.055zm7.834-31.333H19.972a9.139 9.139 0 00-9.139 9.14v3.916h78.334v-3.917a9.139 9.139 0 00-9.14-9.139z" fill-rule="nonzero" fill="#fff"/></svg>