<svg xmlns="http://www.w3.org/2000/svg" fill="none" viewBox="0 0 100 100" height="100" width="100"><path fill="#68217A" d="M49.8 41.701a4.6 4.6 0 100 9.2 4.6 4.6 0 000-9.2zm-11.5 4.6c0-6.35 5.149-11.5 11.5-11.5s11.5 5.15 11.5 11.5c0 6.351-5.149 11.5-11.5 11.5s-11.5-5.149-11.5-11.5z"/><path fill="#68217a" d="M19.9 42.092a4.6 4.6 0 100 9.2 4.6 4.6 0 000-9.2zm-11.5 4.6c0-6.351 5.149-11.5 11.5-11.5s11.5 5.149 11.5 11.5-5.149 11.5-11.5 11.5-11.5-5.149-11.5-11.5zM34.85 16.4a4.6 4.6 0 100 9.2 4.6 4.6 0 000-9.2zM23.35 21c0-6.351 5.149-11.5 11.5-11.5s11.5 5.149 11.5 11.5c0 6.35-5.149 11.5-11.5 11.5s-11.5-5.15-11.5-11.5zM64.75 16.4a4.6 4.6 0 100 9.2 4.6 4.6 0 000-9.2zM53.25 21c0-6.351 5.149-11.5 11.5-11.5s11.5 5.149 11.5 11.5c0 6.35-5.149 11.5-11.5 11.5s-11.5-5.15-11.5-11.5zM79.7 42.092a4.6 4.6 0 100 9.2 4.6 4.6 0 000-9.2zm-11.5 4.6c0-6.351 5.149-11.5 11.5-11.5s11.5 5.149 11.5 11.5-5.149 11.5-11.5 11.5-11.5-5.149-11.5-11.5zM27.575 64.7a8.018 8.018 0 00-.775 3.45v3.45H8.4V72.73c.002.032.005.099.014.196a8.479 8.479 0 001.295 3.696c1.166 1.796 3.75 4.178 10.168 4.178 3.5 0 5.864-.703 7.482-1.634a19.932 19.932 0 002.81 6.326c-2.62 1.354-5.994 2.208-10.292 2.208-8.509 0-13.389-3.367-15.955-7.322a15.383 15.383 0 01-2.378-6.815 10.963 10.963 0 01-.043-.707v-.062L1.5 72.77v-4.619a3.45 3.45 0 013.45-3.45zM69.422 85.497c2.612 1.35 5.974 2.203 10.255 2.203 8.527 0 13.419-3.363 15.993-7.317a15.36 15.36 0 002.386-6.819 10.963 10.963 0 00.043-.708v-.061l.001-.025v-4.619a3.448 3.448 0 00-3.45-3.45H72.023a8.045 8.045 0 01.777 3.45v3.45h18.4V72.73a4.518 4.518 0 01-.014.194 8.47 8.47 0 01-1.299 3.693c-1.17 1.796-3.764 4.182-10.21 4.182-3.477 0-5.829-.699-7.44-1.625a19.904 19.904 0 01-2.815 6.322zM31.4 68.15a3.45 3.45 0 013.45-3.45h29.9a3.449 3.449 0 013.45 3.45v6.9c0-1.15-.006.1 0 0v.045l-.001.06a9.093 9.093 0 01-.043.71 15.36 15.36 0 01-2.386 6.818C63.196 86.637 58.304 90 49.777 90c-8.509 0-13.389-3.367-15.955-7.322a15.383 15.383 0 01-2.378-6.815 10.956 10.956 0 01-.043-.707v-.062l-.001-.024v-.015zm6.9 3.45V75.03c.002.032.005.099.014.196a8.479 8.479 0 001.295 3.696c1.166 1.795 3.75 4.178 10.168 4.178 6.446 0 9.04-2.386 10.21-4.182a8.47 8.47 0 001.299-3.693c.008-.097.012-.164.014-.195V71.6z"/></svg>