<svg xmlns="http://www.w3.org/2000/svg" viewBox="0 0 100 100" height="100" width="100"><path d="M23.125 79.9h68.9a3.975 3.975 0 01.54 7.914l-.54.036h-68.9a3.975 3.975 0 01-.54-7.914zm53-15.9a3.975 3.975 0 01.54 7.914l-.54.036h-68.9a3.975 3.975 0 01-.54-7.914l.54-.036zm15.9-15.9a3.975 3.975 0 01.54 7.914l-.54.036h-68.9a3.975 3.975 0 01-.54-7.914l.54-.036zM17.825 11a14.577 14.577 0 0113.51 9.099 3.975 3.975 0 01-7.13 3.474l-.237-.486A6.628 6.628 0 0011.2 25.575a6.625 6.625 0 006.625 6.625h60.95a3.975 3.975 0 01.54 7.914l-.54.036h-60.95c-8.05 0-14.575-6.525-14.575-14.575C3.25 17.525 9.775 11 17.825 11zm74.2 5.3a3.975 3.975 0 01.54 7.914l-.54.036h-47.7a3.975 3.975 0 01-.54-7.914l.54-.036z" fill-rule="nonzero" fill="#fff"/></svg>