<svg id="Layer_1" data-name="Layer 1" xmlns="http://www.w3.org/2000/svg" viewBox="0 0 120 110"><defs><style>.cls-1{fill:#72137d}</style></defs><path class="cls-1" d="M100 92.72H37.51a2.62 2.62 0 0 1-2.62-2.62V2.62A2.62 2.62 0 0 1 37.51 0h40.6A2.63 2.63 0 0 1 80 .77l21.87 21.87a2.6 2.6 0 0 1 .76 1.85V90.1a2.62 2.62 0 0 1-2.63 2.62zm-59.87-5.24h57.23V25.57L77 5.24H40.13z"/><path class="cls-1" d="M100 27.11H84a8.54 8.54 0 0 1-8.52-8.53v-16A2.61 2.61 0 0 1 77.11.2 2.64 2.64 0 0 1 80 .77l21.87 21.87a2.62 2.62 0 0 1-1.87 4.47zM80.73 8.94v9.64A3.3 3.3 0 0 0 84 21.87h9.64zM91.24 101.25H28.76a2.62 2.62 0 0 1-2.62-2.62V11.16a2.62 2.62 0 1 1 5.24 0V96h59.86a2.62 2.62 0 1 1 0 5.24z"/><path class="cls-1" d="M82.49 110H20a2.62 2.62 0 0 1-2.62-2.62V19.9a2.62 2.62 0 0 1 5.24 0v84.86h59.87a2.62 2.62 0 1 1 0 5.24z"/><g><path class="cls-1" d="M81.33 60.73h-3.89a2.62 2.62 0 0 1 0-5.24h3.89a5.93 5.93 0 0 0 2-11.53 2.62 2.62 0 0 1-1.75-2.55v-.23a8.49 8.49 0 0 0-16.09-3.81 2.62 2.62 0 0 1-3.41 1.21 4.44 4.44 0 0 0-6.23 3.35 2.63 2.63 0 0 1-1.7 2 5.93 5.93 0 0 0 2 11.51h3.9a2.62 2.62 0 0 1 0 5.24h-3.9A11.17 11.17 0 0 1 51 39.64a9.64 9.64 0 0 1 9.22-6.7 9.16 9.16 0 0 1 1.78.16 13.73 13.73 0 0 1 24.77 6.68 11.17 11.17 0 0 1-5.41 20.95z"/><path class="cls-1" d="M68.75 74.49a2.62 2.62 0 0 1-2.62-2.62V51.79a2.62 2.62 0 0 1 5.24 0v20.08a2.62 2.62 0 0 1-2.62 2.62z"/><path class="cls-1" d="M68.75 75a2.61 2.61 0 0 1-1.85-.77l-7-7a2.62 2.62 0 0 1 3.71-3.71l5.18 5.19 5.18-5.19a2.62 2.62 0 0 1 3.7 3.71l-7 7a2.63 2.63 0 0 1-1.92.77z"/></g></svg>