<?xml version="1.0" encoding="UTF-8" standalone="no"?>
<svg
   xmlns:dc="http://purl.org/dc/elements/1.1/"
   xmlns:cc="http://creativecommons.org/ns#"
   xmlns:rdf="http://www.w3.org/1999/02/22-rdf-syntax-ns#"
   xmlns:svg="http://www.w3.org/2000/svg"
   xmlns="http://www.w3.org/2000/svg"
   xmlns:sodipodi="http://sodipodi.sourceforge.net/DTD/sodipodi-0.dtd"
   xmlns:inkscape="http://www.inkscape.org/namespaces/inkscape"
   version="1.1"
   x="0"
   y="0"
   width="400"
   height="400"
   viewBox="0, 0, 400, 400"
   id="svg33"
   sodipodi:docname="logo_big.svg"
   inkscape:version="0.92.1 r15371">
  <metadata
     id="metadata39">
    <rdf:RDF>
      <cc:Work
         rdf:about="">
        <dc:format>image/svg+xml</dc:format>
        <dc:type
           rdf:resource="http://purl.org/dc/dcmitype/StillImage" />
      </cc:Work>
    </rdf:RDF>
  </metadata>
  <defs
     id="defs37" />
  <sodipodi:namedview
     pagecolor="#ffffff"
     bordercolor="#666666"
     borderopacity="1"
     objecttolerance="10"
     gridtolerance="10"
     guidetolerance="10"
     inkscape:pageopacity="0"
     inkscape:pageshadow="2"
     inkscape:window-width="1920"
     inkscape:window-height="1017"
     id="namedview35"
     showgrid="false"
     inkscape:zoom="1.668772"
     inkscape:cx="265.87488"
     inkscape:cy="159.5715"
     inkscape:window-x="1912"
     inkscape:window-y="-8"
     inkscape:window-maximized="1"
     inkscape:current-layer="svg33" />
  <path
     style="fill:#68217a"
     inkscape:connector-curvature="0"
     id="path2"
     d="M 212,13 C 120.304,13 44.112,79.356 28.807,166.667 c 17.626,0.014 31.911,14.306 31.911,31.935 0,17.637 -14.298,31.935 -31.936,31.935 -0.036,0 -0.071,-0.003 -0.107,-0.003 C 43.654,318.238 120.025,385 212,385 314.725,385 398,301.725 398,199 398,96.275 314.725,13 212,13" />
  <path
     style="fill:#ffffff"
     inkscape:connector-curvature="0"
     id="path4"
     d="M 152.052,220.588 H 132.914 L 98.218,167.693 c -2.035,-3.092 -3.444,-5.42 -4.227,-6.986 h -0.234 c 0.313,3.131 0.469,7.671 0.469,13.62 v 46.261 H 76.321 v -84.185 h 20.43 l 33.404,51.251 4.226,6.868 h 0.235 c -0.313,-2.035 -0.469,-5.89 -0.469,-11.565 v -46.554 h 17.905 z" />
  <path
     style="fill:#ffffff"
     inkscape:connector-curvature="0"
     id="path6"
     d="m 221.795,220.588 h -50.487 v -84.185 h 48.55 v 15.44 H 190.27 v 18.727 h 27.533 v 15.381 H 190.27 v 19.256 h 31.525 z" />
  <path
     style="fill:#ffffff"
     inkscape:connector-curvature="0"
     id="path8"
     d="m 294.415,151.843 h -24.011 v 68.745 H 251.383 V 151.843 H 227.49 v -15.44 h 66.925 z" />
  <path
     style="font-size:58.66666794px;letter-spacing:-2.8499999px;fill:#ffffff;fill-opacity:1"
     d="m 90.339844,245.89453 c -4.641156,-0.22983 -9.206788,3.48517 -9.5625,8.27149 -0.245195,1.51954 -0.224896,3.00198 -0.216797,4.53906 -1.192172,0.42731 -2.86646,-0.60229 -3.748047,0.39844 0.26832,1.05902 -0.711983,2.96724 1.074219,3.05273 0.926179,0.0865 2.631336,-0.56738 2.759765,0.97461 -0.233435,7.5128 -0.007,15.09322 -0.08594,22.6375 0.391525,1.06944 -0.829064,3.77666 0.689453,3.68281 1.106717,-0.12596 3.035006,0.86129 3.492188,-0.51367 0,-8.95703 -10e-7,-17.91406 0,-26.87109 3.164062,0 6.328124,0 9.492187,0 -0.235612,-1.08408 0.725089,-2.79402 -0.390625,-3.43164 -3.063702,0.25738 -6.182524,0.0354 -9.267578,0.10937 -0.142789,-3.10006 -0.0338,-7.38971 3.378906,-8.72461 2.644829,-1.04532 5.580794,-0.63821 8.259766,0.0449 -0.250351,-1.21773 0.881964,-3.14436 -0.490235,-3.8164 -1.79602,-0.25301 -3.576647,-0.42414 -5.384765,-0.35352 z"
     id="path4571"
     inkscape:connector-curvature="0" />
  <path
     style="font-size:58.66666794px;letter-spacing:-2.8499999px;fill:#ffffff;fill-opacity:1"
     d="m 110.3418,257.85352 c -6.41672,-0.56112 -12.820359,4.32473 -13.882531,10.70054 -1.486259,6.18631 -0.786071,13.57995 3.853231,18.31508 5.75708,5.27595 16.07629,4.84903 20.70508,-1.75391 3.52842,-4.87776 3.70844,-11.32462 2.35488,-16.95692 -1.31214,-5.69565 -6.51759,-10.24094 -12.44473,-10.28331 0.17994,0.0313 -0.80984,-0.0573 -0.58593,-0.0215 z m 0.0156,3.42578 c 4.77906,-0.0894 8.78149,4.17976 9.0566,8.83419 0.8064,5.08959 0.54314,11.25453 -3.55269,14.93143 -4.65054,3.81117 -13.00643,1.88367 -14.64578,-4.18557 -1.637861,-4.83058 -1.522705,-10.4046 0.61698,-15.05532 1.64563,-3.04143 5.11989,-4.73662 8.52489,-4.52473 z"
     id="path4573"
     inkscape:connector-curvature="0" />
  <path
     style="font-size:58.66666794px;letter-spacing:-2.8499999px;fill:#ffffff;fill-opacity:1"
     d="m 131.79688,258.64062 c -1.973,-0.23315 -0.95501,2.28766 -1.19141,3.40313 0.10979,6.53235 -0.21528,13.1542 0.15114,19.62189 0.42295,4.03339 3.17373,7.97266 7.41136,8.55116 4.66963,0.9582 9.55134,-1.14938 12.99414,-4.29688 1.35007,-0.0645 0.69703,1.99366 0.81439,2.7746 -0.0371,1.60116 2.15705,0.72173 3.11725,0.78204 1.79786,0.38622 0.8246,-1.84908 1.06445,-3.00195 0,-9.22266 0,-18.44531 0,-27.66797 -1.3778,0.27741 -3.12731,-0.7778 -4.15234,0.30469 -0.073,7.73433 -0.0103,15.48005 -0.0312,23.21875 -3.80694,3.04431 -9.19402,5.52562 -13.99805,3.35156 -3.53219,-2.18149 -3.14633,-6.93216 -3.18945,-10.5207 0,-5.45143 0,-10.90287 0,-16.3543 -0.99245,0.10307 -2.06538,-0.15673 -2.99023,-0.16602 z"
     id="path4575"
     inkscape:connector-curvature="0" />
  <path
     style="font-size:58.66666794px;letter-spacing:-2.8499999px;fill:#ffffff;fill-opacity:1"
     d="m 179.94336,257.87305 c -4.03146,0.19779 -7.60126,2.45803 -10.57813,5.02148 -0.5172,-1.37107 0.58124,-3.15564 -0.42968,-4.22656 -1.30092,0.31489 -3.26291,-0.67232 -3.98047,0.8418 0.35901,8.20602 0.0523,16.49576 0.1543,24.73398 0.21197,1.61429 -0.41645,4.13745 0.29882,5.20742 1.26774,-0.1964 3.10679,0.85312 3.875,-0.39648 0.0182,-7.70196 0.003,-15.40504 0.008,-23.10742 3.86264,-3.07885 9.46207,-5.67805 14.2539,-3.15235 3.25147,2.15739 2.80239,6.62916 2.9336,10.025 0,5.55156 0,11.10313 0,16.65469 1.3778,-0.27741 3.12731,0.7778 4.15234,-0.30469 -0.10695,-7.88296 0.39005,-15.82047 -0.28906,-23.66797 -0.69503,-4.18099 -4.43219,-7.77391 -8.86914,-7.625 -0.51005,-0.0232 -1.01911,-0.0225 -1.5293,-0.004 z"
     id="path4577"
     inkscape:connector-curvature="0" />
  <path
     style="font-size:58.66666794px;letter-spacing:-2.8499999px;fill:#ffffff;fill-opacity:1"
     d="m 221.14453,246.06445 c -1.973,-0.23315 -0.955,2.28765 -1.19141,3.40313 -0.11393,3.4088 0.21825,6.94602 -0.14843,10.28242 -1.36963,0.70647 -2.62548,-1.14838 -4.03407,-1.18241 -5.99133,-2.1441 -13.54275,0.38153 -16.34874,6.29569 -3.18843,6.07309 -2.884,13.54744 -0.13472,19.71315 2.19306,4.24793 7.17529,6.66879 11.78083,5.70992 3.38021,-0.50446 6.32543,-2.47641 8.80701,-4.73166 0.52949,1.29088 -0.59029,3.0964 0.43555,4.08593 1.31966,-0.34095 3.24682,0.63733 3.97851,-0.86914 -0.35901,-8.20602 -0.0523,-16.49576 -0.15429,-24.73398 0,-5.93568 0,-11.87135 0,-17.80703 -0.99246,0.10307 -2.06538,-0.15674 -2.99024,-0.16602 z m -9.44141,15.51563 c 2.81483,0.091 6.14302,0.43552 8.25,2.32031 -0.0794,6.22881 0.15794,12.61387 -0.11718,18.74609 -3.83778,3.17722 -9.67186,5.35415 -14.31641,2.58594 -4.12003,-3.05797 -4.12547,-8.83298 -3.87964,-13.46866 0.29561,-4.643 3.42388,-9.63943 8.41751,-10.07088 0.54385,-0.0827 1.09644,-0.1032 1.64572,-0.1128 z"
     id="path4579"
     inkscape:connector-curvature="0" />
  <path
     style="font-size:58.66666794px;letter-spacing:-2.8499999px;fill:#ffffff;fill-opacity:1"
     d="m 241.55078,258.02344 c -2.65858,0.17989 -5.36918,0.63266 -7.90039,1.29101 0.22642,1.37832 -0.58036,3.01442 0.17969,4.15625 5.16913,-1.75328 11.27171,-3.1608 16.37461,-0.50937 2.08914,1.43504 2.64284,4.22026 2.36953,6.59726 -6.51118,0.65877 -13.90615,-0.0408 -19.24583,4.45569 -4.7618,4.64749 -2.73646,14.0171 3.84225,15.85019 5.12766,1.70903 10.6672,-0.46759 14.67897,-3.77267 1.35603,-0.0152 0.53313,2.02357 0.69922,2.79687 -0.10172,1.16752 1.53889,0.24877 2.22461,0.67969 0.95038,0.26228 2.44217,0.10093 1.97251,-1.22773 -0.16675,-7.74009 0.36674,-15.52192 -0.3065,-23.23516 -0.96456,-4.3323 -5.39314,-6.80995 -9.5664,-6.96094 -1.78426,-0.19499 -3.54855,-0.20615 -5.32227,-0.12109 z m 11.04297,15.00976 c -0.14399,3.21888 0.29809,6.57953 -0.23828,9.70508 -3.98088,3.28813 -9.93405,5.28518 -14.79297,2.76953 -3.94257,-2.5572 -2.95294,-9.51614 1.58789,-10.85156 4.24109,-1.82543 8.95751,-1.42694 13.44336,-1.95508 v 0.3 z"
     id="path4581"
     inkscape:connector-curvature="0" />
  <path
     style="font-size:58.66666794px;letter-spacing:-2.8499999px;fill:#ffffff;fill-opacity:1"
     d="m 266.83398,249.44531 c -1.97299,-0.23316 -0.955,2.28765 -1.1914,3.40313 -0.18711,1.86084 0.34841,3.95223 -0.2168,5.69453 -0.96934,0.8652 -2.75232,-0.53352 -3.46094,0.47461 -0.0558,1.18842 -0.46423,3.68068 1.56232,3.17823 0.99091,-0.57102 2.49256,-0.0626 2.1955,1.28271 -0.17967,4.42298 0.0116,8.88256 -0.12305,13.32421 0.17281,3.90863 -0.3999,8.70602 3.06055,11.45899 3.45668,2.79359 8.24407,1.95226 12.22656,1.1289 -0.21224,-1.16374 0.52214,-2.58677 -0.0898,-3.56835 -3.0801,0.96934 -7.34921,1.69674 -9.63477,-1.1875 -2.21296,-3.33643 -0.98967,-7.58132 -1.33789,-11.28711 0,-3.76042 0,-7.52084 0,-11.28125 3.68945,0 7.3789,0 11.06836,0 -0.23588,-1.08413 0.72562,-2.79431 -0.39063,-3.43164 -3.53347,0.25917 -7.12285,0.034 -10.67773,0.10937 0,-3.04427 0,-6.08854 0,-9.13281 -0.99245,0.10307 -2.06538,-0.15674 -2.99024,-0.16602 z"
     id="path4583"
     inkscape:connector-curvature="0" />
  <path
     style="font-size:58.66666794px;letter-spacing:-2.8499999px;fill:#ffffff;fill-opacity:1"
     d="m 286.30469,247.72461 c -1.63015,0.2728 -0.37681,2.62975 -0.76758,3.73164 0.2331,1.60934 3.3777,0.3072 4.8,0.72734 -0.19838,-1.41654 0.68956,-3.17131 -0.2668,-4.37109 -1.26375,0.23298 -2.52411,-0.20919 -3.76562,-0.0879 z m 0.76758,10.91601 c -1.9731,-0.23329 -0.95494,2.28765 -1.19141,3.40313 0,9.14362 0,18.28724 0,27.43086 1.3778,-0.27741 3.12732,0.7778 4.15234,-0.30469 0.073,-10.11585 0.0104,-20.24306 0.0312,-30.36328 -0.99311,0.10306 -2.06663,-0.15692 -2.99218,-0.16602 z"
     id="path4585"
     inkscape:connector-curvature="0" />
  <path
     style="font-size:58.66666794px;letter-spacing:-2.8499999px;fill:#ffffff;fill-opacity:1"
     d="m 309.99219,257.87305 c -6.54564,-0.0643 -12.28314,5.4798 -12.92755,11.82856 -1.15665,6.05308 -0.24478,13.21958 4.58966,17.59136 6.12741,5.12886 16.79957,4.04002 20.88086,-3.15625 2.95385,-5.1827 3.12595,-11.58332 1.33081,-17.1295 -1.64886,-5.28478 -6.76752,-9.20048 -12.36702,-9.13288 -0.50223,-0.0288 -1.00432,-0.0104 -1.50676,-0.001 z m 1.21875,3.40625 c 4.77861,-0.0889 8.7801,4.18015 9.05464,8.83419 0.80616,5.08934 0.54396,11.25467 -3.55269,14.93143 -4.65017,3.81106 -13.00675,1.88342 -14.64558,-4.18564 -1.63557,-4.83103 -1.52396,-10.40456 0.61678,-15.05525 1.64729,-3.04138 5.12095,-4.73642 8.52685,-4.52473 z"
     id="path4587"
     inkscape:connector-curvature="0" />
  <path
     style="font-size:58.66666794px;letter-spacing:-2.8499999px;fill:#ffffff;fill-opacity:1"
     d="m 346.51953,257.87305 c -4.03103,0.19715 -7.59906,2.45897 -10.57617,5.02148 -0.5172,-1.37107 0.58123,-3.15564 -0.42969,-4.22656 -1.30091,0.31489 -3.26291,-0.67232 -3.98047,0.8418 0.35901,8.20602 0.0523,16.49576 0.1543,24.73398 0.21197,1.61429 -0.41644,4.13745 0.29883,5.20742 1.26774,-0.1964 3.10678,0.85312 3.875,-0.39648 0.0182,-7.70196 0.003,-15.40504 0.008,-23.10742 3.8619,-3.07885 9.46073,-5.67805 14.25195,-3.15235 3.25177,2.15636 2.80495,6.62887 2.93555,10.025 0,5.55156 0,11.10313 0,16.65469 1.37719,-0.27746 3.1258,0.77768 4.15039,-0.30469 -0.10815,-7.8829 0.39253,-15.82084 -0.29101,-23.66797 -0.68754,-4.19524 -4.46606,-7.79092 -8.86719,-7.625 -0.51005,-0.0232 -1.01911,-0.0225 -1.5293,-0.004 z"
     id="path4589"
     inkscape:connector-curvature="0" />
  <path
     style="fill:#cf18fd"
     inkscape:connector-curvature="0"
     id="path30"
     d="m 51.282,199.167 c 0,12.979 -10.521,23.5 -23.5,23.5 -12.979,0 -23.499,-10.521 -23.499,-23.5 0,-12.979 10.52,-23.5 23.499,-23.5 12.979,0 23.5,10.521 23.5,23.5" />
</svg>
