<svg xmlns="http://www.w3.org/2000/svg" width="400" height="400"><path d="M212 13C120.304 13 44.112 79.356 28.807 166.667c17.626.014 31.911 14.306 31.911 31.935 0 17.637-14.298 31.935-31.936 31.935-.036 0-.071-.003-.107-.003C43.654 318.238 120.025 385 212 385c102.725 0 186-83.275 186-186S314.725 13 212 13" fill="#68217a"/><path d="M152.052 220.588h-19.138l-34.696-52.895c-2.035-3.092-3.444-5.42-4.227-6.986h-.234c.313 3.131.469 7.671.469 13.62v46.261H76.321v-84.185h20.43l33.404 51.251 4.226 6.868h.235c-.313-2.035-.469-5.89-.469-11.565v-46.554h17.905zM221.795 220.588h-50.487v-84.185h48.55v15.44H190.27v18.727h27.533v15.381H190.27v19.256h31.525zM294.415 151.843h-24.011v68.745h-19.021v-68.745H227.49v-15.44h66.925z" fill="#fff"/><path d="M90.34 245.895c-4.641-.23-9.207 3.485-9.563 8.271-.245 1.52-.225 3.002-.216 4.54-1.193.426-2.867-.603-3.749.398.269 1.059-.711 2.967 1.075 3.052.926.087 2.631-.567 2.76.975-.234 7.513-.008 15.093-.086 22.637.391 1.07-.83 3.777.689 3.683 1.107-.126 3.035.861 3.492-.514v-26.87h9.492c-.235-1.085.725-2.795-.39-3.432-3.064.257-6.183.035-9.268.11-.143-3.1-.034-7.39 3.38-8.725 2.644-1.046 5.58-.639 8.259.044-.25-1.217.882-3.144-.49-3.816-1.796-.253-3.577-.424-5.385-.353zM110.342 257.854c-6.417-.562-12.82 4.324-13.883 10.7-1.486 6.186-.786 13.58 3.854 18.315 5.757 5.276 16.076 4.85 20.705-1.754 3.528-4.878 3.708-11.324 2.354-16.957-1.312-5.695-6.517-10.24-12.444-10.283.18.031-.81-.057-.586-.021zm.015 3.425c4.78-.09 8.782 4.18 9.057 8.834.806 5.09.543 11.255-3.553 14.932-4.65 3.811-13.006 1.884-14.645-4.186-1.638-4.83-1.523-10.404.617-15.055 1.645-3.041 5.12-4.737 8.524-4.525zM131.797 258.64c-1.973-.233-.955 2.288-1.192 3.404.11 6.532-.215 13.154.152 19.622.423 4.033 3.173 7.972 7.411 8.55 4.67.959 9.551-1.149 12.994-4.296 1.35-.065.697 1.994.814 2.775-.037 1.6 2.158.721 3.118.782 1.798.386.824-1.85 1.064-3.002v-27.668c-1.378.277-3.127-.778-4.152.304-.073 7.735-.01 15.48-.031 23.22-3.807 3.043-9.194 5.525-13.998 3.35-3.533-2.18-3.147-6.932-3.19-10.52v-16.354c-.992.103-2.065-.157-2.99-.166zM179.943 257.873c-4.031.198-7.6 2.458-10.578 5.022-.517-1.372.581-3.156-.43-4.227-1.3.315-3.262-.672-3.98.842.36 8.206.052 16.496.154 24.734.212 1.614-.416 4.137.3 5.207 1.267-.196 3.106.853 3.874-.396.018-7.702.003-15.405.008-23.108 3.863-3.079 9.462-5.678 14.254-3.152 3.252 2.157 2.802 6.63 2.934 10.025v16.655c1.378-.278 3.127.777 4.152-.305-.107-7.883.39-15.82-.289-23.668-.695-4.181-4.432-7.774-8.87-7.625-.51-.023-1.018-.023-1.528-.004zM221.145 246.064c-1.973-.233-.955 2.288-1.192 3.404-.114 3.408.218 6.946-.148 10.282-1.37.706-2.626-1.148-4.034-1.182-5.992-2.145-13.543.381-16.35 6.295-3.188 6.073-2.883 13.548-.134 19.713 2.193 4.248 7.175 6.67 11.781 5.71 3.38-.504 6.325-2.476 8.807-4.731.53 1.29-.59 3.096.436 4.086 1.32-.341 3.246.637 3.978-.87-.359-8.206-.052-16.495-.154-24.734V246.23c-.993.104-2.066-.156-2.99-.166zm-9.442 15.516c2.815.091 6.143.436 8.25 2.32-.08 6.23.158 12.614-.117 18.746-3.838 3.178-9.672 5.355-14.316 2.586-4.12-3.058-4.126-8.833-3.88-13.468.296-4.643 3.424-9.64 8.417-10.071a12.388 12.388 0 0 1 1.646-.113zM241.55 258.023c-2.658.18-5.368.633-7.9 1.291.227 1.379-.58 3.015.18 4.157 5.17-1.754 11.272-3.161 16.375-.51 2.089 1.435 2.643 4.22 2.37 6.598-6.512.658-13.907-.041-19.247 4.455-4.761 4.648-2.736 14.017 3.843 15.85 5.127 1.71 10.667-.467 14.679-3.772 1.356-.015.533 2.023.699 2.797-.102 1.167 1.539.248 2.224.68.95.262 2.443.1 1.973-1.228-.167-7.74.367-15.522-.307-23.236-.964-4.332-5.393-6.81-9.566-6.96-1.784-.195-3.549-.207-5.322-.122zm11.044 15.01c-.144 3.22.298 6.58-.239 9.705-3.98 3.288-9.934 5.285-14.792 2.77-3.943-2.557-2.953-9.516 1.587-10.852 4.241-1.825 8.958-1.427 13.444-1.955v.3zM266.834 249.445c-1.973-.233-.955 2.288-1.191 3.403-.188 1.861.348 3.953-.217 5.695-.97.865-2.753-.534-3.461.475-.056 1.188-.464 3.68 1.562 3.178.991-.571 2.493-.063 2.196 1.283-.18 4.423.011 8.882-.123 13.324.172 3.908-.4 8.706 3.06 11.459 3.457 2.793 8.244 1.952 12.227 1.129-.213-1.164.522-2.587-.09-3.569-3.08.97-7.35 1.697-9.635-1.187-2.213-3.337-.99-7.582-1.338-11.287v-11.282h11.069c-.236-1.084.725-2.794-.391-3.431-3.533.259-7.123.034-10.678.11v-9.134c-.992.103-2.065-.156-2.99-.166zM286.305 247.725c-1.63.272-.377 2.63-.768 3.731.233 1.61 3.378.307 4.8.728-.198-1.417.69-3.172-.267-4.371-1.263.232-2.524-.21-3.765-.088zm.767 10.916c-1.973-.234-.955 2.287-1.191 3.403v27.43c1.378-.277 3.127.778 4.152-.304.073-10.116.01-20.243.031-30.363-.993.103-2.066-.157-2.992-.166zM309.992 257.873c-6.545-.064-12.283 5.48-12.927 11.829-1.157 6.053-.245 13.22 4.59 17.591 6.127 5.129 16.799 4.04 20.88-3.156 2.954-5.183 3.126-11.584 1.331-17.13-1.649-5.285-6.768-9.2-12.367-9.133-.502-.028-1.004-.01-1.507 0zm1.219 3.406c4.779-.089 8.78 4.18 9.055 8.834.806 5.09.544 11.255-3.553 14.932-4.65 3.811-13.007 1.883-14.646-4.186-1.635-4.83-1.524-10.404.617-15.055 1.647-3.041 5.121-4.736 8.527-4.525zM346.52 257.873c-4.032.197-7.6 2.459-10.577 5.022-.517-1.372.582-3.156-.43-4.227-1.3.315-3.262-.672-3.98.842.36 8.206.052 16.496.154 24.734.212 1.614-.416 4.137.3 5.207 1.267-.196 3.106.853 3.874-.396.019-7.702.003-15.405.008-23.108 3.862-3.079 9.461-5.678 14.252-3.152 3.252 2.156 2.805 6.629 2.936 10.025v16.655c1.377-.278 3.126.777 4.15-.305-.108-7.883.393-15.82-.29-23.668-.688-4.195-4.467-7.791-8.868-7.625-.51-.023-1.02-.023-1.53-.004z" font-size="58.667" letter-spacing="-2.85" fill="#fff"/><path d="M51.282 199.167c0 12.979-10.521 23.5-23.5 23.5s-23.499-10.521-23.499-23.5 10.52-23.5 23.499-23.5 23.5 10.521 23.5 23.5" fill="#cf18fd"/></svg>