<svg xmlns="http://www.w3.org/2000/svg" width="551.488" height="382.673" viewBox="0 0 145.915 101.249"><g transform="translate(-37.93 -136.195)"><ellipse cx="73.731" cy="150.023" rx="10.716" ry="10.561" fill="#682079"/><ellipse cx="95.11" cy="144.363" rx="8.289" ry="8.169" fill="#682079"/><path d="M101.115 236.937c-.871-.382-1.912-1.219-2.312-1.858-.4-.64-2.677-12.508-5.06-26.372-2.383-13.865-4.447-25.603-4.586-26.083-.234-.81-1.49-.874-17.246-.874H54.917l.204-5.366c.234-6.132 1.07-8.337 4.208-11.092 3.188-2.799 4.212-3.01 14.527-3.005 8.785.005 9.534.078 11.892 1.176 2.696 1.256 4.954 3.562 6.052 6.182.364.867.882 1.618.882 1.618l1.724-.298c-.52-2.133-3.065-5.807-5.238-7.604-1.069-.883-2.785-1.86-3.815-2.17-2.114-.638-2.245-.913-.98-2.057 2.05-1.855 4.394-2.343 11.197-2.332 5.35.009 7.02.188 8.648.927 3.447 1.566 4.64 3.524 5.85 8.168.002.766.68 2.641 1.029 2.64.343-.003 12.893-2.516 28.543-5.259 15.65-2.743 29.093-4.988 29.874-4.988 1.64-.001 4.128 1.602 4.55 2.933.16.501 2.525 13.771 5.257 29.49 4.588 26.396 4.915 28.704 4.275 30.235-.381.912-1.217 1.99-1.858 2.397-.668.424-17.232 3.531-38.853 7.29-20.73 3.602-38.25 6.65-38.937 6.774-.687.123-1.961-.09-2.833-.472zm40.771-12.054c19.905-3.465 36.28-6.385 36.39-6.487.109-.102-1.259-8.558-3.04-18.79-2.958-16.996-3.321-18.597-4.192-18.523-1.592.137-73.822 12.76-74.02 12.937-.18.159 5.737 35.025 6.241 36.777.173.6.594.798 1.34.631.6-.134 17.376-3.079 37.281-6.545zm-103.738-59.77c.256-4.878 1.36-7.118 4.548-9.23 1.891-1.252 2.448-1.35 8.573-1.51 7.952-.208 10.258.314 12.85 2.906 1.04 1.04 1.89 2.1 1.89 2.357 0 .257-1.217.85-2.706 1.32-3.081.971-7.288 4.432-8.27 6.804l-.626 1.51H37.93z" fill="#682079"/><text transform="rotate(-9.945)" y="203.639" x="70.545" style="line-height:1.25" font-weight="400" font-size="16.467" font-family="sans-serif" letter-spacing="0" word-spacing="0" stroke-width=".412"><tspan y="203.639" x="70.545" font-weight="700" fill="#fff">HELLO</tspan></text><ellipse ry="7.935" rx="8.052" cy="144.48" cx="52.863" fill="#682079"/></g></svg>