<svg id="Layer_1" data-name="Layer 1" xmlns="http://www.w3.org/2000/svg" viewBox="0 0 120 110"><defs><style>.cls-1{fill:#72137d}</style></defs><path class="cls-1" d="M95.73 109.27a23.69 23.69 0 1 1 23.69-23.69 23.72 23.72 0 0 1-23.69 23.69zm0-42.14a18.45 18.45 0 1 0 18.45 18.45 18.48 18.48 0 0 0-18.45-18.45z"/><path class="cls-1" d="M83.1 99.8l-4.82-2a19.1 19.1 0 0 1 7.45-8.68 11.73 11.73 0 1 1 20 0 19.12 19.12 0 0 1 7.46 8.68l-4.82 2a13.85 13.85 0 0 0-7.72-7.44 2.62 2.62 0 0 1-.75-4.45 6.49 6.49 0 1 0-8.34 0 2.62 2.62 0 0 1-.74 4.45 13.82 13.82 0 0 0-7.72 7.44zM24.27 109.27A23.69 23.69 0 1 1 48 85.58a23.72 23.72 0 0 1-23.73 23.69zm0-42.14a18.45 18.45 0 1 0 18.45 18.45 18.47 18.47 0 0 0-18.45-18.45z"/><path class="cls-1" d="M11.63 99.8l-4.82-2a19.12 19.12 0 0 1 7.46-8.68 11.73 11.73 0 1 1 20 0 19.1 19.1 0 0 1 7.45 8.68l-4.82 2a13.82 13.82 0 0 0-7.72-7.44 2.62 2.62 0 0 1-.74-4.45 6.5 6.5 0 1 0-8.34 0 2.62 2.62 0 0 1-.75 4.45 13.85 13.85 0 0 0-7.72 7.44zM60 47.38a23.69 23.69 0 1 1 23.69-23.69A23.72 23.72 0 0 1 60 47.38zm0-42.14a18.45 18.45 0 1 0 18.45 18.45A18.47 18.47 0 0 0 60 5.24z"/><path class="cls-1" d="M47.36 37.91l-4.81-2A19 19 0 0 1 50 27.18a11.73 11.73 0 1 1 20 0 19.06 19.06 0 0 1 7.45 8.67l-4.82 2.06a13.83 13.83 0 0 0-7.71-7.44 2.62 2.62 0 0 1-.75-4.47 6.49 6.49 0 1 0-8.34 0 2.62 2.62 0 0 1-.75 4.45 13.88 13.88 0 0 0-7.72 7.46zM60 110a45.05 45.05 0 0 1-14.9-2.52 2.62 2.62 0 1 1 1.73-5 39.91 39.91 0 0 0 33.61-3.41 2.62 2.62 0 0 1 2.69 4.5A45.07 45.07 0 0 1 60 110zM101.53 58.85A2.63 2.63 0 0 1 99 56.77a39.79 39.79 0 0 0-19.62-26.61 2.62 2.62 0 0 1 2.55-4.57A45.07 45.07 0 0 1 104.1 55.7a2.63 2.63 0 0 1-2 3.1 3.29 3.29 0 0 1-.57.05zM17.57 68.21A2.62 2.62 0 0 1 15 65.63V65a45 45 0 0 1 15.43-34 2.62 2.62 0 1 1 3.44 3.95A39.8 39.8 0 0 0 20.19 65v.61a2.61 2.61 0 0 1-2.58 2.65zM60 97.52A32.24 32.24 0 0 1 43.43 93a2.62 2.62 0 1 1 2.69-4.49A27 27 0 0 0 60 92.28a27.32 27.32 0 0 0 7.38-1 2.62 2.62 0 1 1 1.42 5 32.56 32.56 0 0 1-8.8 1.24zM89.66 67.87A2.62 2.62 0 0 1 87 65.25a26.88 26.88 0 0 0-8-19.15 2.62 2.62 0 1 1 3.7-3.71 32.09 32.09 0 0 1 9.48 22.86 2.62 2.62 0 0 1-2.52 2.62z"/><path class="cls-1" d="M31.3 60.39a2.48 2.48 0 0 1-.66-.08 2.62 2.62 0 0 1-1.88-3.19 32.45 32.45 0 0 1 15.53-20.07 2.62 2.62 0 1 1 2.55 4.57 27.18 27.18 0 0 0-13 16.81 2.62 2.62 0 0 1-2.54 1.96z"/></svg>