<svg id="Layer_1" data-name="Layer 1" xmlns="http://www.w3.org/2000/svg" viewBox="0 0 120 110">
  <defs>
    <style>
      .cls-1 {
        fill: #72137d;
      }
    </style>
  </defs>
  <g>
    <g>
      <path class="cls-1" d="M100,92.72H37.51a2.62,2.62,0,0,1-2.62-2.62V2.62A2.62,2.62,0,0,1,37.51,0h40.6A2.63,2.63,0,0,1,80,.77l21.87,21.87a2.6,2.6,0,0,1,.76,1.85V90.1A2.62,2.62,0,0,1,100,92.72ZM40.13,87.48H97.36V25.57L77,5.24H40.13Z"/>
      <path class="cls-1" d="M100,27.11H84a8.54,8.54,0,0,1-8.52-8.53v-16A2.61,2.61,0,0,1,77.11.2,2.64,2.64,0,0,1,80,.77l21.87,21.87A2.62,2.62,0,0,1,100,27.11ZM80.73,8.94v9.64A3.3,3.3,0,0,0,84,21.87h9.64Z"/>
      <path class="cls-1" d="M91.24,101.25H28.76a2.62,2.62,0,0,1-2.62-2.62V11.16a2.62,2.62,0,1,1,5.24,0V96H91.24a2.62,2.62,0,1,1,0,5.24Z"/>
      <path class="cls-1" d="M82.49,110H20a2.62,2.62,0,0,1-2.62-2.62V19.9a2.62,2.62,0,0,1,5.24,0v84.86H82.49a2.62,2.62,0,1,1,0,5.24Z"/>
    </g>
    <g>
      <path class="cls-1" d="M81.33,60.73H77.44a2.62,2.62,0,0,1,0-5.24h3.89a5.93,5.93,0,0,0,2-11.53,2.62,2.62,0,0,1-1.75-2.55v-.23a8.49,8.49,0,0,0-16.09-3.81,2.62,2.62,0,0,1-3.41,1.21,4.44,4.44,0,0,0-6.23,3.35,2.63,2.63,0,0,1-1.7,2,5.93,5.93,0,0,0,2,11.51h3.9a2.62,2.62,0,0,1,0,5.24h-3.9A11.17,11.17,0,0,1,51,39.64a9.64,9.64,0,0,1,9.22-6.7A9.16,9.16,0,0,1,62,33.1a13.73,13.73,0,0,1,24.77,6.68,11.17,11.17,0,0,1-5.41,20.95Z"/>
      <path class="cls-1" d="M68.75,74.49a2.62,2.62,0,0,1-2.62-2.62V51.79a2.62,2.62,0,0,1,5.24,0V71.87A2.62,2.62,0,0,1,68.75,74.49Z"/>
      <path class="cls-1" d="M68.75,75h0a2.61,2.61,0,0,1-1.85-.77l-7-7a2.62,2.62,0,0,1,3.71-3.71l5.18,5.19,5.18-5.19a2.62,2.62,0,0,1,3.7,3.71l-7,7A2.63,2.63,0,0,1,68.75,75Z"/>
    </g>
  </g>
</svg>
